<?xml version="1.0" encoding="UTF-8" standalone="no"?>
<!DOCTYPE svg PUBLIC "-//W3C//DTD SVG 1.1//EN"
 "http://www.w3.org/Graphics/SVG/1.1/DTD/svg11.dtd">
<!-- Generated by graphviz version 2.40.1 (0)
 -->
<!-- Title: snakemake_dag Pages: 1 -->
<svg width="4378pt" height="1340pt"
 viewBox="0.00 0.00 4378.00 1340.00" xmlns="http://www.w3.org/2000/svg" xmlns:xlink="http://www.w3.org/1999/xlink">
<g id="graph0" class="graph" transform="scale(1 1) rotate(0) translate(4 1336)">
<title>snakemake_dag</title>
<polygon fill="#ffffff" stroke="transparent" points="-4,4 -4,-1336 4374,-1336 4374,4 -4,4"/>
<!-- 0 -->
<g id="node1" class="node">
<title>0</title>
<path fill="none" stroke="#565bd8" stroke-width="2" d="M2306,-36C2306,-36 2276,-36 2276,-36 2270,-36 2264,-30 2264,-24 2264,-24 2264,-12 2264,-12 2264,-6 2270,0 2276,0 2276,0 2306,0 2306,0 2312,0 2318,-6 2318,-12 2318,-12 2318,-24 2318,-24 2318,-30 2312,-36 2306,-36"/>
<text text-anchor="middle" x="2291" y="-15.5" font-family="sans" font-size="10.00" fill="#000000">all</text>
</g>
<!-- 1 -->
<g id="node2" class="node">
<title>1</title>
<path fill="none" stroke="#56d863" stroke-width="2" d="M2202,-396C2202,-396 1972,-396 1972,-396 1966,-396 1960,-390 1960,-384 1960,-384 1960,-372 1960,-372 1960,-366 1966,-360 1972,-360 1972,-360 2202,-360 2202,-360 2208,-360 2214,-366 2214,-372 2214,-372 2214,-384 2214,-384 2214,-390 2208,-396 2202,-396"/>
<text text-anchor="middle" x="2087" y="-375.5" font-family="sans" font-size="10.00" fill="#000000">CorcesINT_spilterlize_integrate_plot_diagnostics</text>
</g>
<!-- 1&#45;&gt;0 -->
<g id="edge27" class="edge">
<title>1&#45;&gt;0</title>
<path fill="none" stroke="#c0c0c0" stroke-width="2" d="M2081.8354,-359.8312C2070.6408,-316.1511 2049.4579,-204.4063 2106,-144 2180.6095,-64.2916 2277.6798,-190.6646 2349,-108 2366.5198,-87.6934 2345.868,-61.6885 2324.5065,-42.8586"/>
<polygon fill="#c0c0c0" stroke="#c0c0c0" stroke-width="2" points="2326.5794,-40.0286 2316.6737,-36.2697 2322.0733,-45.3854 2326.5794,-40.0286"/>
</g>
<!-- 2 -->
<g id="node3" class="node">
<title>2</title>
<path fill="none" stroke="#56d863" stroke-width="2" d="M2540.5,-756C2540.5,-756 2369.5,-756 2369.5,-756 2363.5,-756 2357.5,-750 2357.5,-744 2357.5,-744 2357.5,-732 2357.5,-732 2357.5,-726 2363.5,-720 2369.5,-720 2369.5,-720 2540.5,-720 2540.5,-720 2546.5,-720 2552.5,-726 2552.5,-732 2552.5,-732 2552.5,-744 2552.5,-744 2552.5,-750 2546.5,-756 2540.5,-756"/>
<text text-anchor="middle" x="2455" y="-735.5" font-family="sans" font-size="10.00" fill="#000000">CorcesINT_spilterlize_integrate_split</text>
</g>
<!-- 2&#45;&gt;1 -->
<g id="edge40" class="edge">
<title>2&#45;&gt;1</title>
<path fill="none" stroke="#c0c0c0" stroke-width="2" d="M2357.2788,-734.3844C2193.0797,-727.5946 1875.4184,-711.1256 1832,-684 1792.4384,-659.2839 1778,-640.6476 1778,-594 1778,-594 1778,-594 1778,-522 1778,-471.6768 1914.3486,-424.6691 2005.9007,-398.7776"/>
<polygon fill="#c0c0c0" stroke="#c0c0c0" stroke-width="2" points="2007.0327,-402.0954 2015.7212,-396.0323 2005.1481,-395.3539 2007.0327,-402.0954"/>
</g>
<!-- 22 -->
<g id="node23" class="node">
<title>22</title>
<path fill="none" stroke="#59d856" stroke-width="2" d="M2071,-684C2071,-684 1853,-684 1853,-684 1847,-684 1841,-678 1841,-672 1841,-672 1841,-660 1841,-660 1841,-654 1847,-648 1853,-648 1853,-648 2071,-648 2071,-648 2077,-648 2083,-654 2083,-660 2083,-660 2083,-672 2083,-672 2083,-678 2077,-684 2071,-684"/>
<text text-anchor="middle" x="1962" y="-663.5" font-family="sans" font-size="10.00" fill="#000000">CorcesINT_spilterlize_integrate_filter_features</text>
</g>
<!-- 2&#45;&gt;22 -->
<g id="edge64" class="edge">
<title>2&#45;&gt;22</title>
<path fill="none" stroke="#c0c0c0" stroke-width="2" d="M2357.3045,-723.7321C2281.6404,-712.6818 2176.0843,-697.2659 2093.0799,-685.1435"/>
<polygon fill="#c0c0c0" stroke="#c0c0c0" stroke-width="2" points="2093.4735,-681.664 2083.0727,-683.682 2092.4619,-688.5905 2093.4735,-681.664"/>
</g>
<!-- 25 -->
<g id="node26" class="node">
<title>25</title>
<path fill="none" stroke="#56d85b" stroke-width="2" d="M2283.5,-540C2283.5,-540 2052.5,-540 2052.5,-540 2046.5,-540 2040.5,-534 2040.5,-528 2040.5,-528 2040.5,-516 2040.5,-516 2040.5,-510 2046.5,-504 2052.5,-504 2052.5,-504 2283.5,-504 2283.5,-504 2289.5,-504 2295.5,-510 2295.5,-516 2295.5,-516 2295.5,-528 2295.5,-528 2295.5,-534 2289.5,-540 2283.5,-540"/>
<text text-anchor="middle" x="2168" y="-519.5" font-family="sans" font-size="10.00" fill="#000000">CorcesINT_spilterlize_integrate_integrate_limma</text>
</g>
<!-- 2&#45;&gt;25 -->
<g id="edge69" class="edge">
<title>2&#45;&gt;25</title>
<path fill="none" stroke="#c0c0c0" stroke-width="2" d="M2447.0728,-719.9911C2431.465,-686.6013 2393.555,-614.9527 2340,-576 2320.2009,-561.5993 2296.4426,-550.9574 2272.993,-543.1217"/>
<polygon fill="#c0c0c0" stroke="#c0c0c0" stroke-width="2" points="2273.9199,-539.7437 2263.3292,-540.0403 2271.7933,-546.4129 2273.9199,-539.7437"/>
</g>
<!-- 27 -->
<g id="node28" class="node">
<title>27</title>
<path fill="none" stroke="#56d863" stroke-width="2" d="M1930,-396C1930,-396 1712,-396 1712,-396 1706,-396 1700,-390 1700,-384 1700,-384 1700,-372 1700,-372 1700,-366 1706,-360 1712,-360 1712,-360 1930,-360 1930,-360 1936,-360 1942,-366 1942,-372 1942,-372 1942,-384 1942,-384 1942,-390 1936,-396 1930,-396"/>
<text text-anchor="middle" x="1821" y="-375.5" font-family="sans" font-size="10.00" fill="#000000">CorcesINT_spilterlize_integrate_plot_heatmap</text>
</g>
<!-- 2&#45;&gt;27 -->
<g id="edge76" class="edge">
<title>2&#45;&gt;27</title>
<path fill="none" stroke="#c0c0c0" stroke-width="2" d="M2357.3183,-736.5456C2197.9943,-733.0986 1889.7426,-721.6367 1788,-684 1724.1325,-660.3741 1664,-662.0972 1664,-594 1664,-594 1664,-594 1664,-522 1664,-464.5609 1721.7786,-423.8176 1767.2338,-400.6518"/>
<polygon fill="#c0c0c0" stroke="#c0c0c0" stroke-width="2" points="1769.0108,-403.6779 1776.4301,-396.1144 1765.9135,-397.4004 1769.0108,-403.6779"/>
</g>
<!-- 28 -->
<g id="node29" class="node">
<title>28</title>
<path fill="none" stroke="#56d85b" stroke-width="2" d="M3623.5,-540C3623.5,-540 3434.5,-540 3434.5,-540 3428.5,-540 3422.5,-534 3422.5,-528 3422.5,-528 3422.5,-516 3422.5,-516 3422.5,-510 3428.5,-504 3434.5,-504 3434.5,-504 3623.5,-504 3623.5,-504 3629.5,-504 3635.5,-510 3635.5,-516 3635.5,-516 3635.5,-528 3635.5,-528 3635.5,-534 3629.5,-540 3623.5,-540"/>
<text text-anchor="middle" x="3529" y="-519.5" font-family="sans" font-size="10.00" fill="#000000">CorcesINT_spilterlize_integrate_plot_cfa</text>
</g>
<!-- 2&#45;&gt;28 -->
<g id="edge77" class="edge">
<title>2&#45;&gt;28</title>
<path fill="none" stroke="#c0c0c0" stroke-width="2" d="M2552.5247,-735.7785C2769.5472,-730.311 3278.9859,-714.3864 3351,-684 3420.6142,-654.6263 3480.6934,-585.923 3509.9755,-548.1058"/>
<polygon fill="#c0c0c0" stroke="#c0c0c0" stroke-width="2" points="3512.8086,-550.1625 3516.0817,-540.0859 3507.2392,-545.922 3512.8086,-550.1625"/>
</g>
<!-- 32 -->
<g id="node33" class="node">
<title>32</title>
<path fill="none" stroke="#56d87b" stroke-width="2" d="M3217.5,-396C3217.5,-396 3036.5,-396 3036.5,-396 3030.5,-396 3024.5,-390 3024.5,-384 3024.5,-384 3024.5,-372 3024.5,-372 3024.5,-366 3030.5,-360 3036.5,-360 3036.5,-360 3217.5,-360 3217.5,-360 3223.5,-360 3229.5,-366 3229.5,-372 3229.5,-372 3229.5,-384 3229.5,-384 3229.5,-390 3223.5,-396 3217.5,-396"/>
<text text-anchor="middle" x="3127" y="-375.5" font-family="sans" font-size="10.00" fill="#000000">CorcesINT_unsupervised_analysis_pca</text>
</g>
<!-- 2&#45;&gt;32 -->
<g id="edge79" class="edge">
<title>2&#45;&gt;32</title>
<path fill="none" stroke="#c0c0c0" stroke-width="2" d="M2552.5188,-731.4522C2705.5926,-718.4626 2985,-682.6156 2985,-594 2985,-594 2985,-594 2985,-522 2985,-466.7192 3038.7129,-424.9675 3080.0688,-401.0138"/>
<polygon fill="#c0c0c0" stroke="#c0c0c0" stroke-width="2" points="3081.9399,-403.9773 3088.9466,-396.0302 3078.5133,-397.8733 3081.9399,-403.9773"/>
</g>
<!-- 33 -->
<g id="node34" class="node">
<title>33</title>
<path fill="none" stroke="#56d882" stroke-width="2" d="M3161.5,-324C3161.5,-324 2886.5,-324 2886.5,-324 2880.5,-324 2874.5,-318 2874.5,-312 2874.5,-312 2874.5,-300 2874.5,-300 2874.5,-294 2880.5,-288 2886.5,-288 2886.5,-288 3161.5,-288 3161.5,-288 3167.5,-288 3173.5,-294 3173.5,-300 3173.5,-300 3173.5,-312 3173.5,-312 3173.5,-318 3167.5,-324 3161.5,-324"/>
<text text-anchor="middle" x="3024" y="-303.5" font-family="sans" font-size="10.00" fill="#000000">CorcesINT_unsupervised_analysis_plot_dimred_metadata</text>
</g>
<!-- 2&#45;&gt;33 -->
<g id="edge80" class="edge">
<title>2&#45;&gt;33</title>
<path fill="none" stroke="#c0c0c0" stroke-width="2" d="M2552.642,-731.4412C2774.8089,-715.2111 3299,-668.9729 3299,-594 3299,-594 3299,-594 3299,-450 3299,-381.5544 3231.3159,-345.5799 3163.105,-326.7042"/>
<polygon fill="#c0c0c0" stroke="#c0c0c0" stroke-width="2" points="3163.608,-323.2169 3153.0453,-324.0415 3161.8168,-329.9838 3163.608,-323.2169"/>
</g>
<!-- 34 -->
<g id="node35" class="node">
<title>34</title>
<path fill="none" stroke="#56d88a" stroke-width="2" d="M2994,-396C2994,-396 2744,-396 2744,-396 2738,-396 2732,-390 2732,-384 2732,-384 2732,-372 2732,-372 2732,-366 2738,-360 2744,-360 2744,-360 2994,-360 2994,-360 3000,-360 3006,-366 3006,-372 3006,-372 3006,-384 3006,-384 3006,-390 3000,-396 2994,-396"/>
<text text-anchor="middle" x="2869" y="-375.5" font-family="sans" font-size="10.00" fill="#000000">CorcesINT_unsupervised_analysis_prep_feature_plot</text>
</g>
<!-- 2&#45;&gt;34 -->
<g id="edge85" class="edge">
<title>2&#45;&gt;34</title>
<path fill="none" stroke="#c0c0c0" stroke-width="2" d="M2552.7874,-724.0329C2615.28,-713.948 2689.717,-699.4353 2718,-684 2767.1066,-657.2003 2806,-649.9435 2806,-594 2806,-594 2806,-594 2806,-522 2806,-478.171 2830.7996,-432.6548 2849.2797,-404.8215"/>
<polygon fill="#c0c0c0" stroke="#c0c0c0" stroke-width="2" points="2852.2621,-406.6608 2855.0183,-396.4307 2846.4841,-402.7091 2852.2621,-406.6608"/>
</g>
<!-- 35 -->
<g id="node36" class="node">
<title>35</title>
<path fill="none" stroke="#56d88a" stroke-width="2" d="M3470,-324C3470,-324 3204,-324 3204,-324 3198,-324 3192,-318 3192,-312 3192,-312 3192,-300 3192,-300 3192,-294 3198,-288 3204,-288 3204,-288 3470,-288 3470,-288 3476,-288 3482,-294 3482,-300 3482,-300 3482,-312 3482,-312 3482,-318 3476,-324 3470,-324"/>
<text text-anchor="middle" x="3337" y="-303.5" font-family="sans" font-size="10.00" fill="#000000">CorcesINT_unsupervised_analysis_plot_pca_diagnostics</text>
</g>
<!-- 2&#45;&gt;35 -->
<g id="edge86" class="edge">
<title>2&#45;&gt;35</title>
<path fill="none" stroke="#c0c0c0" stroke-width="2" d="M2552.567,-733.6447C2711.422,-725.9637 3018.8938,-708.4756 3125,-684 3224.7421,-660.9924 3337,-696.3613 3337,-594 3337,-594 3337,-594 3337,-450 3337,-409.876 3337,-363.4631 3337,-334.4177"/>
<polygon fill="#c0c0c0" stroke="#c0c0c0" stroke-width="2" points="3340.5001,-334.1853 3337,-324.1854 3333.5001,-334.1854 3340.5001,-334.1853"/>
</g>
<!-- 36 -->
<g id="node37" class="node">
<title>36</title>
<path fill="none" stroke="#56d882" stroke-width="2" d="M2844,-324C2844,-324 2564,-324 2564,-324 2558,-324 2552,-318 2552,-312 2552,-312 2552,-300 2552,-300 2552,-294 2558,-288 2564,-288 2564,-288 2844,-288 2844,-288 2850,-288 2856,-294 2856,-300 2856,-300 2856,-312 2856,-312 2856,-318 2850,-324 2844,-324"/>
<text text-anchor="middle" x="2704" y="-303.5" font-family="sans" font-size="10.00" fill="#000000">CorcesINT_unsupervised_analysis_plot_dimred_interactive</text>
</g>
<!-- 2&#45;&gt;36 -->
<g id="edge89" class="edge">
<title>2&#45;&gt;36</title>
<path fill="none" stroke="#c0c0c0" stroke-width="2" d="M2552.6967,-721.6552C2622.4555,-703.7431 2704,-667.1585 2704,-594 2704,-594 2704,-594 2704,-450 2704,-409.876 2704,-363.4631 2704,-334.4177"/>
<polygon fill="#c0c0c0" stroke="#c0c0c0" stroke-width="2" points="2707.5001,-334.1853 2704,-324.1854 2700.5001,-334.1854 2707.5001,-334.1853"/>
</g>
<!-- 37 -->
<g id="node38" class="node">
<title>37</title>
<path fill="none" stroke="#56d892" stroke-width="2" d="M2664,-468C2664,-468 2440,-468 2440,-468 2434,-468 2428,-462 2428,-456 2428,-456 2428,-444 2428,-444 2428,-438 2434,-432 2440,-432 2440,-432 2664,-432 2664,-432 2670,-432 2676,-438 2676,-444 2676,-444 2676,-456 2676,-456 2676,-462 2670,-468 2664,-468"/>
<text text-anchor="middle" x="2552" y="-447.5" font-family="sans" font-size="10.00" fill="#000000">CorcesINT_unsupervised_analysis_umap_graph</text>
</g>
<!-- 2&#45;&gt;37 -->
<g id="edge94" class="edge">
<title>2&#45;&gt;37</title>
<path fill="none" stroke="#c0c0c0" stroke-width="2" d="M2461.0678,-719.9843C2477.501,-671.1929 2522.9547,-536.2377 2542.6729,-477.6927"/>
<polygon fill="#c0c0c0" stroke="#c0c0c0" stroke-width="2" points="2546.0595,-478.603 2545.9345,-468.0089 2539.4256,-476.3686 2546.0595,-478.603"/>
</g>
<!-- 44 -->
<g id="node45" class="node">
<title>44</title>
<path fill="none" stroke="#8fd856" stroke-width="2" d="M1313.5,-468C1313.5,-468 1188.5,-468 1188.5,-468 1182.5,-468 1176.5,-462 1176.5,-456 1176.5,-456 1176.5,-444 1176.5,-444 1176.5,-438 1182.5,-432 1188.5,-432 1188.5,-432 1313.5,-432 1313.5,-432 1319.5,-432 1325.5,-438 1325.5,-444 1325.5,-444 1325.5,-456 1325.5,-456 1325.5,-462 1319.5,-468 1313.5,-468"/>
<text text-anchor="middle" x="1251" y="-447.5" font-family="sans" font-size="10.00" fill="#000000">CorcesINT_dea_limma_dea</text>
</g>
<!-- 2&#45;&gt;44 -->
<g id="edge101" class="edge">
<title>2&#45;&gt;44</title>
<path fill="none" stroke="#c0c0c0" stroke-width="2" d="M2357.4322,-734.6504C2139.7313,-726.795 1631.0008,-706.1681 1601,-684 1532.2212,-633.1782 1598.4413,-559.0529 1533,-504 1503.627,-479.2898 1407.537,-464.7673 1335.6325,-457.1177"/>
<polygon fill="#c0c0c0" stroke="#c0c0c0" stroke-width="2" points="1335.9641,-453.6334 1325.6564,-456.0836 1335.2422,-460.5961 1335.9641,-453.6334"/>
</g>
<!-- 53 -->
<g id="node54" class="node">
<title>53</title>
<path fill="none" stroke="#61d856" stroke-width="2" d="M1670,-396C1670,-396 1546,-396 1546,-396 1540,-396 1534,-390 1534,-384 1534,-384 1534,-372 1534,-372 1534,-366 1540,-360 1546,-360 1546,-360 1670,-360 1670,-360 1676,-360 1682,-366 1682,-372 1682,-372 1682,-384 1682,-384 1682,-390 1676,-396 1670,-396"/>
<text text-anchor="middle" x="1608" y="-375.5" font-family="sans" font-size="10.00" fill="#000000">CorcesINT_plot_correlation</text>
</g>
<!-- 2&#45;&gt;53 -->
<g id="edge110" class="edge">
<title>2&#45;&gt;53</title>
<path fill="none" stroke="#c0c0c0" stroke-width="2" d="M2357.2563,-735.5336C2163.4121,-730.006 1743.934,-714.6404 1686,-684 1640.9625,-660.1804 1615,-644.9485 1615,-594 1615,-594 1615,-594 1615,-522 1615,-481.8286 1612.2486,-435.4278 1610.1958,-406.3979"/>
<polygon fill="#c0c0c0" stroke="#c0c0c0" stroke-width="2" points="1613.6682,-405.8907 1609.4504,-396.1716 1606.6867,-406.3996 1613.6682,-405.8907"/>
</g>
<!-- 3 -->
<g id="node4" class="node">
<title>3</title>
<path fill="none" stroke="#61d856" stroke-width="2" d="M2440,-828C2440,-828 2324,-828 2324,-828 2318,-828 2312,-822 2312,-816 2312,-816 2312,-804 2312,-804 2312,-798 2318,-792 2324,-792 2324,-792 2440,-792 2440,-792 2446,-792 2452,-798 2452,-804 2452,-804 2452,-816 2452,-816 2452,-822 2446,-828 2440,-828"/>
<text text-anchor="middle" x="2382" y="-807.5" font-family="sans" font-size="10.00" fill="#000000">CorcesINT_merge_counts</text>
</g>
<!-- 3&#45;&gt;2 -->
<g id="edge41" class="edge">
<title>3&#45;&gt;2</title>
<path fill="none" stroke="#c0c0c0" stroke-width="2" d="M2400.421,-791.8314C2409.1529,-783.219 2419.7317,-772.7851 2429.2423,-763.4048"/>
<polygon fill="#c0c0c0" stroke="#c0c0c0" stroke-width="2" points="2431.923,-765.6769 2436.5849,-756.1628 2427.0075,-760.6931 2431.923,-765.6769"/>
</g>
<!-- 4 -->
<g id="node5" class="node">
<title>4</title>
<path fill="none" stroke="#56c1d8" stroke-width="2" d="M1940.5,-900C1940.5,-900 1741.5,-900 1741.5,-900 1735.5,-900 1729.5,-894 1729.5,-888 1729.5,-888 1729.5,-876 1729.5,-876 1729.5,-870 1735.5,-864 1741.5,-864 1741.5,-864 1940.5,-864 1940.5,-864 1946.5,-864 1952.5,-870 1952.5,-876 1952.5,-876 1952.5,-888 1952.5,-888 1952.5,-894 1946.5,-900 1940.5,-900"/>
<text text-anchor="middle" x="1841" y="-879.5" font-family="sans" font-size="10.00" fill="#000000">CorcesRNA_rnaseq_pipeline_count_matrix</text>
</g>
<!-- 4&#45;&gt;3 -->
<g id="edge42" class="edge">
<title>4&#45;&gt;3</title>
<path fill="none" stroke="#c0c0c0" stroke-width="2" d="M1952.7674,-867.1252C2056.6998,-853.2932 2209.0119,-833.0224 2301.4875,-820.7152"/>
<polygon fill="#c0c0c0" stroke="#c0c0c0" stroke-width="2" points="2302.1786,-824.1541 2311.6295,-819.3654 2301.2551,-817.2153 2302.1786,-824.1541"/>
</g>
<!-- 45 -->
<g id="node46" class="node">
<title>45</title>
<path fill="none" stroke="#56c1d8" stroke-width="2" d="M1662,-828C1662,-828 1450,-828 1450,-828 1444,-828 1438,-822 1438,-816 1438,-816 1438,-804 1438,-804 1438,-798 1444,-792 1450,-792 1450,-792 1662,-792 1662,-792 1668,-792 1674,-798 1674,-804 1674,-804 1674,-816 1674,-816 1674,-822 1668,-828 1662,-828"/>
<text text-anchor="middle" x="1556" y="-807.5" font-family="sans" font-size="10.00" fill="#000000">CorcesRNA_rnaseq_pipeline_annotate_genes</text>
</g>
<!-- 4&#45;&gt;45 -->
<g id="edge102" class="edge">
<title>4&#45;&gt;45</title>
<path fill="none" stroke="#c0c0c0" stroke-width="2" d="M1769.4503,-863.9243C1729.3034,-853.7819 1679.0692,-841.0912 1637.4207,-830.5694"/>
<polygon fill="#c0c0c0" stroke="#c0c0c0" stroke-width="2" points="1638.1318,-827.1392 1627.5791,-828.0831 1636.4172,-833.926 1638.1318,-827.1392"/>
</g>
<!-- 5 -->
<g id="node6" class="node">
<title>5</title>
<path fill="none" stroke="#56c9d8" stroke-width="2" d="M1920,-972C1920,-972 1762,-972 1762,-972 1756,-972 1750,-966 1750,-960 1750,-960 1750,-948 1750,-948 1750,-942 1756,-936 1762,-936 1762,-936 1920,-936 1920,-936 1926,-936 1932,-942 1932,-948 1932,-948 1932,-960 1932,-960 1932,-966 1926,-972 1920,-972"/>
<text text-anchor="middle" x="1841" y="-951.5" font-family="sans" font-size="10.00" fill="#000000">CorcesRNA_rnaseq_pipeline_align</text>
</g>
<!-- 5&#45;&gt;4 -->
<g id="edge44" class="edge">
<title>5&#45;&gt;4</title>
<path fill="none" stroke="#c0c0c0" stroke-width="2" d="M1841,-935.8314C1841,-928.131 1841,-918.9743 1841,-910.4166"/>
<polygon fill="#c0c0c0" stroke="#c0c0c0" stroke-width="2" points="1844.5001,-910.4132 1841,-900.4133 1837.5001,-910.4133 1844.5001,-910.4132"/>
</g>
<!-- 6 -->
<g id="node7" class="node">
<title>6</title>
<path fill="none" stroke="#56a2d8" stroke-width="2" d="M2063,-1044C2063,-1044 1881,-1044 1881,-1044 1875,-1044 1869,-1038 1869,-1032 1869,-1032 1869,-1020 1869,-1020 1869,-1014 1875,-1008 1881,-1008 1881,-1008 2063,-1008 2063,-1008 2069,-1008 2075,-1014 2075,-1020 2075,-1020 2075,-1032 2075,-1032 2075,-1038 2069,-1044 2063,-1044"/>
<text text-anchor="middle" x="1972" y="-1023.5" font-family="sans" font-size="10.00" fill="#000000">CorcesRNA_rnaseq_pipeline_trim_filter</text>
</g>
<!-- 6&#45;&gt;5 -->
<g id="edge45" class="edge">
<title>6&#45;&gt;5</title>
<path fill="none" stroke="#c0c0c0" stroke-width="2" d="M1938.9432,-1007.8314C1922.0323,-998.5368 1901.2615,-987.1208 1883.2059,-977.1971"/>
<polygon fill="#c0c0c0" stroke="#c0c0c0" stroke-width="2" points="1884.4957,-973.9122 1874.0463,-972.1628 1881.124,-980.0468 1884.4957,-973.9122"/>
</g>
<!-- 7 -->
<g id="node8" class="node">
<title>7</title>
<path fill="none" stroke="#56d8c9" stroke-width="2" d="M2048.5,-1188C2048.5,-1188 1899.5,-1188 1899.5,-1188 1893.5,-1188 1887.5,-1182 1887.5,-1176 1887.5,-1176 1887.5,-1164 1887.5,-1164 1887.5,-1158 1893.5,-1152 1899.5,-1152 1899.5,-1152 2048.5,-1152 2048.5,-1152 2054.5,-1152 2060.5,-1158 2060.5,-1164 2060.5,-1164 2060.5,-1176 2060.5,-1176 2060.5,-1182 2054.5,-1188 2048.5,-1188"/>
<text text-anchor="middle" x="1974" y="-1167.5" font-family="sans" font-size="10.00" fill="#000000">CorcesRNA_fetch_ngs_fetch_file</text>
</g>
<!-- 7&#45;&gt;6 -->
<g id="edge48" class="edge">
<title>7&#45;&gt;6</title>
<path fill="none" stroke="#c0c0c0" stroke-width="2" d="M1971.0115,-1151.563C1969.4749,-1141.1537 1967.7672,-1127.8866 1967,-1116 1965.6728,-1095.4373 1967.0336,-1072.2178 1968.6684,-1054.5143"/>
<polygon fill="#c0c0c0" stroke="#c0c0c0" stroke-width="2" points="1972.1797,-1054.5779 1969.7002,-1044.2773 1965.2149,-1053.8759 1972.1797,-1054.5779"/>
</g>
<!-- 10 -->
<g id="node11" class="node">
<title>10</title>
<path fill="none" stroke="#56c1d8" stroke-width="2" d="M2205.5,-1116C2205.5,-1116 1988.5,-1116 1988.5,-1116 1982.5,-1116 1976.5,-1110 1976.5,-1104 1976.5,-1104 1976.5,-1092 1976.5,-1092 1976.5,-1086 1982.5,-1080 1988.5,-1080 1988.5,-1080 2205.5,-1080 2205.5,-1080 2211.5,-1080 2217.5,-1086 2217.5,-1092 2217.5,-1092 2217.5,-1104 2217.5,-1104 2217.5,-1110 2211.5,-1116 2205.5,-1116"/>
<text text-anchor="middle" x="2097" y="-1095.5" font-family="sans" font-size="10.00" fill="#000000">CorcesRNA_rnaseq_pipeline_check_read_type</text>
</g>
<!-- 7&#45;&gt;10 -->
<g id="edge53" class="edge">
<title>7&#45;&gt;10</title>
<path fill="none" stroke="#c0c0c0" stroke-width="2" d="M2005.0381,-1151.8314C2020.7705,-1142.6221 2040.0611,-1131.3301 2056.9044,-1121.4706"/>
<polygon fill="#c0c0c0" stroke="#c0c0c0" stroke-width="2" points="2059.1098,-1124.2352 2065.9718,-1116.1628 2055.5735,-1118.1941 2059.1098,-1124.2352"/>
</g>
<!-- 8 -->
<g id="node9" class="node">
<title>8</title>
<path fill="none" stroke="#56d8d0" stroke-width="2" d="M2075.5,-1332C2075.5,-1332 1898.5,-1332 1898.5,-1332 1892.5,-1332 1886.5,-1326 1886.5,-1320 1886.5,-1320 1886.5,-1308 1886.5,-1308 1886.5,-1302 1892.5,-1296 1898.5,-1296 1898.5,-1296 2075.5,-1296 2075.5,-1296 2081.5,-1296 2087.5,-1302 2087.5,-1308 2087.5,-1308 2087.5,-1320 2087.5,-1320 2087.5,-1326 2081.5,-1332 2075.5,-1332"/>
<text text-anchor="middle" x="1987" y="-1311.5" font-family="sans" font-size="10.00" fill="#000000">CorcesRNA_fetch_ngs_iseq_download</text>
</g>
<!-- 8&#45;&gt;7 -->
<g id="edge51" class="edge">
<title>8&#45;&gt;7</title>
<path fill="none" stroke="#c0c0c0" stroke-width="2" d="M1966.5974,-1295.5625C1957.5059,-1285.9675 1947.7838,-1273.4441 1943,-1260 1937.6362,-1244.9258 1938.8779,-1239.4599 1943,-1224 1945.4952,-1214.6419 1950.0408,-1205.2199 1954.8961,-1196.925"/>
<polygon fill="#c0c0c0" stroke="#c0c0c0" stroke-width="2" points="1957.8771,-1198.759 1960.2037,-1188.4228 1951.9392,-1195.0521 1957.8771,-1198.759"/>
</g>
<!-- 9 -->
<g id="node10" class="node">
<title>9</title>
<path fill="none" stroke="#56d8c9" stroke-width="2" d="M2135.5,-1260C2135.5,-1260 1964.5,-1260 1964.5,-1260 1958.5,-1260 1952.5,-1254 1952.5,-1248 1952.5,-1248 1952.5,-1236 1952.5,-1236 1952.5,-1230 1958.5,-1224 1964.5,-1224 1964.5,-1224 2135.5,-1224 2135.5,-1224 2141.5,-1224 2147.5,-1230 2147.5,-1236 2147.5,-1236 2147.5,-1248 2147.5,-1248 2147.5,-1254 2141.5,-1260 2135.5,-1260"/>
<text text-anchor="middle" x="2050" y="-1239.5" font-family="sans" font-size="10.00" fill="#000000">CorcesRNA_fetch_ngs_fastq_to_bam</text>
</g>
<!-- 8&#45;&gt;9 -->
<g id="edge52" class="edge">
<title>8&#45;&gt;9</title>
<path fill="none" stroke="#c0c0c0" stroke-width="2" d="M2002.8976,-1295.8314C2010.2278,-1287.454 2019.066,-1277.3531 2027.0969,-1268.1749"/>
<polygon fill="#c0c0c0" stroke="#c0c0c0" stroke-width="2" points="2029.9373,-1270.2438 2033.8884,-1260.4133 2024.6693,-1265.6343 2029.9373,-1270.2438"/>
</g>
<!-- 9&#45;&gt;7 -->
<g id="edge50" class="edge">
<title>9&#45;&gt;7</title>
<path fill="none" stroke="#c0c0c0" stroke-width="2" d="M2030.822,-1223.8314C2021.6412,-1215.1337 2010.4994,-1204.5783 2000.5224,-1195.1265"/>
<polygon fill="#c0c0c0" stroke="#c0c0c0" stroke-width="2" points="2002.8385,-1192.4995 1993.1719,-1188.1628 1998.0243,-1197.5811 2002.8385,-1192.4995"/>
</g>
<!-- 10&#45;&gt;6 -->
<g id="edge49" class="edge">
<title>10&#45;&gt;6</title>
<path fill="none" stroke="#c0c0c0" stroke-width="2" d="M2065.4572,-1079.8314C2049.3209,-1070.5368 2029.5014,-1059.1208 2012.2728,-1049.1971"/>
<polygon fill="#c0c0c0" stroke="#c0c0c0" stroke-width="2" points="2013.945,-1046.1212 2003.5327,-1044.1628 2010.4511,-1052.187 2013.945,-1046.1212"/>
</g>
<!-- 11 -->
<g id="node12" class="node">
<title>11</title>
<path fill="none" stroke="#56a2d8" stroke-width="2" d="M1800.5,-1044C1800.5,-1044 1615.5,-1044 1615.5,-1044 1609.5,-1044 1603.5,-1038 1603.5,-1032 1603.5,-1032 1603.5,-1020 1603.5,-1020 1603.5,-1014 1609.5,-1008 1615.5,-1008 1615.5,-1008 1800.5,-1008 1800.5,-1008 1806.5,-1008 1812.5,-1014 1812.5,-1020 1812.5,-1020 1812.5,-1032 1812.5,-1032 1812.5,-1038 1806.5,-1044 1800.5,-1044"/>
<text text-anchor="middle" x="1708" y="-1023.5" font-family="sans" font-size="10.00" fill="#000000">CorcesRNA_rnaseq_pipeline_star_index</text>
</g>
<!-- 11&#45;&gt;5 -->
<g id="edge46" class="edge">
<title>11&#45;&gt;5</title>
<path fill="none" stroke="#c0c0c0" stroke-width="2" d="M1741.5615,-1007.8314C1758.8881,-998.4516 1780.2058,-986.9112 1798.6536,-976.9244"/>
<polygon fill="#c0c0c0" stroke="#c0c0c0" stroke-width="2" points="1800.3214,-980.0015 1807.4492,-972.1628 1796.9889,-973.8457 1800.3214,-980.0015"/>
</g>
<!-- 12 -->
<g id="node13" class="node">
<title>12</title>
<path fill="none" stroke="#56b9d8" stroke-width="2" d="M1634.5,-1116C1634.5,-1116 1439.5,-1116 1439.5,-1116 1433.5,-1116 1427.5,-1110 1427.5,-1104 1427.5,-1104 1427.5,-1092 1427.5,-1092 1427.5,-1086 1433.5,-1080 1439.5,-1080 1439.5,-1080 1634.5,-1080 1634.5,-1080 1640.5,-1080 1646.5,-1086 1646.5,-1092 1646.5,-1092 1646.5,-1104 1646.5,-1104 1646.5,-1110 1640.5,-1116 1634.5,-1116"/>
<text text-anchor="middle" x="1537" y="-1095.5" font-family="sans" font-size="10.00" fill="#000000">CorcesRNA_rnaseq_pipeline_get_genome</text>
</g>
<!-- 12&#45;&gt;11 -->
<g id="edge55" class="edge">
<title>12&#45;&gt;11</title>
<path fill="none" stroke="#c0c0c0" stroke-width="2" d="M1580.1505,-1079.8314C1603.1224,-1070.159 1631.5509,-1058.1891 1655.7632,-1047.9944"/>
<polygon fill="#c0c0c0" stroke="#c0c0c0" stroke-width="2" points="1657.3016,-1051.1443 1665.1598,-1044.038 1654.5852,-1044.6929 1657.3016,-1051.1443"/>
</g>
<!-- 12&#45;&gt;45 -->
<g id="edge103" class="edge">
<title>12&#45;&gt;45</title>
<path fill="none" stroke="#c0c0c0" stroke-width="2" d="M1538.1885,-1079.9843C1541.4007,-1031.2939 1550.2739,-896.7961 1554.149,-838.0573"/>
<polygon fill="#c0c0c0" stroke="#c0c0c0" stroke-width="2" points="1557.6459,-838.2176 1554.8119,-828.0089 1550.6611,-837.7568 1557.6459,-838.2176"/>
</g>
<!-- 13 -->
<g id="node14" class="node">
<title>13</title>
<path fill="none" stroke="#56b9d8" stroke-width="2" d="M1885,-1116C1885,-1116 1677,-1116 1677,-1116 1671,-1116 1665,-1110 1665,-1104 1665,-1104 1665,-1092 1665,-1092 1665,-1086 1671,-1080 1677,-1080 1677,-1080 1885,-1080 1885,-1080 1891,-1080 1897,-1086 1897,-1092 1897,-1092 1897,-1104 1897,-1104 1897,-1110 1891,-1116 1885,-1116"/>
<text text-anchor="middle" x="1781" y="-1095.5" font-family="sans" font-size="10.00" fill="#000000">CorcesRNA_rnaseq_pipeline_get_annotation</text>
</g>
<!-- 13&#45;&gt;5 -->
<g id="edge47" class="edge">
<title>13&#45;&gt;5</title>
<path fill="none" stroke="#c0c0c0" stroke-width="2" d="M1797.5482,-1079.7466C1805.7295,-1069.8201 1815.0909,-1056.949 1821,-1044 1829.9432,-1024.4021 1835.0108,-1000.5355 1837.806,-982.3052"/>
<polygon fill="#c0c0c0" stroke="#c0c0c0" stroke-width="2" points="1841.2868,-982.6852 1839.2014,-972.2977 1834.3539,-981.7185 1841.2868,-982.6852"/>
</g>
<!-- 13&#45;&gt;11 -->
<g id="edge54" class="edge">
<title>13&#45;&gt;11</title>
<path fill="none" stroke="#c0c0c0" stroke-width="2" d="M1762.579,-1079.8314C1753.8471,-1071.219 1743.2683,-1060.7851 1733.7577,-1051.4048"/>
<polygon fill="#c0c0c0" stroke="#c0c0c0" stroke-width="2" points="1735.9925,-1048.6931 1726.4151,-1044.1628 1731.077,-1053.6769 1735.9925,-1048.6931"/>
</g>
<!-- 13&#45;&gt;45 -->
<g id="edge104" class="edge">
<title>13&#45;&gt;45</title>
<path fill="none" stroke="#c0c0c0" stroke-width="2" d="M1684.2705,-1079.952C1645.4268,-1070.7515 1606.8057,-1058.4445 1594,-1044 1580.4737,-1028.7427 1565.1185,-896.8914 1558.8709,-838.096"/>
<polygon fill="#c0c0c0" stroke="#c0c0c0" stroke-width="2" points="1562.3374,-837.5924 1557.8128,-828.0123 1555.3756,-838.323 1562.3374,-837.5924"/>
</g>
<!-- 14 -->
<g id="node15" class="node">
<title>14</title>
<path fill="none" stroke="#d86e56" stroke-width="2" d="M2501.5,-900C2501.5,-900 2262.5,-900 2262.5,-900 2256.5,-900 2250.5,-894 2250.5,-888 2250.5,-888 2250.5,-876 2250.5,-876 2250.5,-870 2256.5,-864 2262.5,-864 2262.5,-864 2501.5,-864 2501.5,-864 2507.5,-864 2513.5,-870 2513.5,-876 2513.5,-876 2513.5,-888 2513.5,-888 2513.5,-894 2507.5,-900 2501.5,-900"/>
<text text-anchor="middle" x="2382" y="-879.5" font-family="sans" font-size="10.00" fill="#000000">CorcesATAC_atacseq_pipeline_quantify_aggregate</text>
</g>
<!-- 14&#45;&gt;3 -->
<g id="edge43" class="edge">
<title>14&#45;&gt;3</title>
<path fill="none" stroke="#c0c0c0" stroke-width="2" d="M2382,-863.8314C2382,-856.131 2382,-846.9743 2382,-838.4166"/>
<polygon fill="#c0c0c0" stroke="#c0c0c0" stroke-width="2" points="2385.5001,-838.4132 2382,-828.4133 2378.5001,-838.4133 2385.5001,-838.4132"/>
</g>
<!-- 15 -->
<g id="node16" class="node">
<title>15</title>
<path fill="none" stroke="#d87556" stroke-width="2" d="M2513.5,-972C2513.5,-972 2250.5,-972 2250.5,-972 2244.5,-972 2238.5,-966 2238.5,-960 2238.5,-960 2238.5,-948 2238.5,-948 2238.5,-942 2244.5,-936 2250.5,-936 2250.5,-936 2513.5,-936 2513.5,-936 2519.5,-936 2525.5,-942 2525.5,-948 2525.5,-948 2525.5,-960 2525.5,-960 2525.5,-966 2519.5,-972 2513.5,-972"/>
<text text-anchor="middle" x="2382" y="-951.5" font-family="sans" font-size="10.00" fill="#000000">CorcesATAC_atacseq_pipeline_quantify_counts_sample</text>
</g>
<!-- 15&#45;&gt;14 -->
<g id="edge56" class="edge">
<title>15&#45;&gt;14</title>
<path fill="none" stroke="#c0c0c0" stroke-width="2" d="M2382,-935.8314C2382,-928.131 2382,-918.9743 2382,-910.4166"/>
<polygon fill="#c0c0c0" stroke="#c0c0c0" stroke-width="2" points="2385.5001,-910.4132 2382,-900.4133 2378.5001,-910.4133 2385.5001,-910.4132"/>
</g>
<!-- 16 -->
<g id="node17" class="node">
<title>16</title>
<path fill="none" stroke="#d86656" stroke-width="2" d="M2721.5,-1044C2721.5,-1044 2470.5,-1044 2470.5,-1044 2464.5,-1044 2458.5,-1038 2458.5,-1032 2458.5,-1032 2458.5,-1020 2458.5,-1020 2458.5,-1014 2464.5,-1008 2470.5,-1008 2470.5,-1008 2721.5,-1008 2721.5,-1008 2727.5,-1008 2733.5,-1014 2733.5,-1020 2733.5,-1020 2733.5,-1032 2733.5,-1032 2733.5,-1038 2727.5,-1044 2721.5,-1044"/>
<text text-anchor="middle" x="2596" y="-1023.5" font-family="sans" font-size="10.00" fill="#000000">CorcesATAC_atacseq_pipeline_get_promoter_regions</text>
</g>
<!-- 16&#45;&gt;15 -->
<g id="edge57" class="edge">
<title>16&#45;&gt;15</title>
<path fill="none" stroke="#c0c0c0" stroke-width="2" d="M2542.275,-1007.9243C2512.8927,-998.0387 2476.3148,-985.7321 2445.5242,-975.3726"/>
<polygon fill="#c0c0c0" stroke="#c0c0c0" stroke-width="2" points="2446.3412,-971.9548 2435.7471,-972.0831 2444.1089,-978.5893 2446.3412,-971.9548"/>
</g>
<!-- 17 -->
<g id="node18" class="node">
<title>17</title>
<path fill="none" stroke="#d8d356" stroke-width="2" d="M2658,-1116C2658,-1116 2534,-1116 2534,-1116 2528,-1116 2522,-1110 2522,-1104 2522,-1104 2522,-1092 2522,-1092 2522,-1086 2528,-1080 2534,-1080 2534,-1080 2658,-1080 2658,-1080 2664,-1080 2670,-1086 2670,-1092 2670,-1092 2670,-1104 2670,-1104 2670,-1110 2664,-1116 2658,-1116"/>
<text text-anchor="middle" x="2596" y="-1095.5" font-family="sans" font-size="10.00" fill="#000000">CorcesATAC_get_resources</text>
</g>
<!-- 17&#45;&gt;16 -->
<g id="edge59" class="edge">
<title>17&#45;&gt;16</title>
<path fill="none" stroke="#c0c0c0" stroke-width="2" d="M2596,-1079.8314C2596,-1072.131 2596,-1062.9743 2596,-1054.4166"/>
<polygon fill="#c0c0c0" stroke="#c0c0c0" stroke-width="2" points="2599.5001,-1054.4132 2596,-1044.4133 2592.5001,-1054.4133 2599.5001,-1054.4132"/>
</g>
<!-- 18 -->
<g id="node19" class="node">
<title>18</title>
<path fill="none" stroke="#d85656" stroke-width="2" d="M2428.5,-1044C2428.5,-1044 2261.5,-1044 2261.5,-1044 2255.5,-1044 2249.5,-1038 2249.5,-1032 2249.5,-1032 2249.5,-1020 2249.5,-1020 2249.5,-1014 2255.5,-1008 2261.5,-1008 2261.5,-1008 2428.5,-1008 2428.5,-1008 2434.5,-1008 2440.5,-1014 2440.5,-1020 2440.5,-1020 2440.5,-1032 2440.5,-1032 2440.5,-1038 2434.5,-1044 2428.5,-1044"/>
<text text-anchor="middle" x="2345" y="-1023.5" font-family="sans" font-size="10.00" fill="#000000">CorcesATAC_atacseq_pipeline_align</text>
</g>
<!-- 18&#45;&gt;15 -->
<g id="edge58" class="edge">
<title>18&#45;&gt;15</title>
<path fill="none" stroke="#c0c0c0" stroke-width="2" d="M2354.3367,-1007.8314C2358.4243,-999.8771 2363.3104,-990.369 2367.8309,-981.5723"/>
<polygon fill="#c0c0c0" stroke="#c0c0c0" stroke-width="2" points="2371.0799,-982.9074 2372.5376,-972.4133 2364.8539,-979.7078 2371.0799,-982.9074"/>
</g>
<!-- 19 -->
<g id="node20" class="node">
<title>19</title>
<path fill="none" stroke="#d8bc56" stroke-width="2" d="M2421.5,-1116C2421.5,-1116 2268.5,-1116 2268.5,-1116 2262.5,-1116 2256.5,-1110 2256.5,-1104 2256.5,-1104 2256.5,-1092 2256.5,-1092 2256.5,-1086 2262.5,-1080 2268.5,-1080 2268.5,-1080 2421.5,-1080 2421.5,-1080 2427.5,-1080 2433.5,-1086 2433.5,-1092 2433.5,-1092 2433.5,-1104 2433.5,-1104 2433.5,-1110 2427.5,-1116 2421.5,-1116"/>
<text text-anchor="middle" x="2345" y="-1095.5" font-family="sans" font-size="10.00" fill="#000000">CorcesATAC_fetch_ngs_fetch_file</text>
</g>
<!-- 19&#45;&gt;18 -->
<g id="edge60" class="edge">
<title>19&#45;&gt;18</title>
<path fill="none" stroke="#c0c0c0" stroke-width="2" d="M2345,-1079.8314C2345,-1072.131 2345,-1062.9743 2345,-1054.4166"/>
<polygon fill="#c0c0c0" stroke="#c0c0c0" stroke-width="2" points="2348.5001,-1054.4132 2345,-1044.4133 2341.5001,-1054.4133 2348.5001,-1054.4132"/>
</g>
<!-- 20 -->
<g id="node21" class="node">
<title>20</title>
<path fill="none" stroke="#d8bc56" stroke-width="2" d="M2396.5,-1260C2396.5,-1260 2215.5,-1260 2215.5,-1260 2209.5,-1260 2203.5,-1254 2203.5,-1248 2203.5,-1248 2203.5,-1236 2203.5,-1236 2203.5,-1230 2209.5,-1224 2215.5,-1224 2215.5,-1224 2396.5,-1224 2396.5,-1224 2402.5,-1224 2408.5,-1230 2408.5,-1236 2408.5,-1236 2408.5,-1248 2408.5,-1248 2408.5,-1254 2402.5,-1260 2396.5,-1260"/>
<text text-anchor="middle" x="2306" y="-1239.5" font-family="sans" font-size="10.00" fill="#000000">CorcesATAC_fetch_ngs_iseq_download</text>
</g>
<!-- 20&#45;&gt;19 -->
<g id="edge62" class="edge">
<title>20&#45;&gt;19</title>
<path fill="none" stroke="#c0c0c0" stroke-width="2" d="M2293.3201,-1223.8098C2282.0272,-1205.1902 2268.8756,-1175.7044 2280,-1152 2285.4591,-1140.3676 2294.7912,-1130.3739 2304.7073,-1122.2592"/>
<polygon fill="#c0c0c0" stroke="#c0c0c0" stroke-width="2" points="2306.8846,-1125.0005 2312.7221,-1116.1588 2302.645,-1119.4304 2306.8846,-1125.0005"/>
</g>
<!-- 21 -->
<g id="node22" class="node">
<title>21</title>
<path fill="none" stroke="#d8b456" stroke-width="2" d="M2476.5,-1188C2476.5,-1188 2301.5,-1188 2301.5,-1188 2295.5,-1188 2289.5,-1182 2289.5,-1176 2289.5,-1176 2289.5,-1164 2289.5,-1164 2289.5,-1158 2295.5,-1152 2301.5,-1152 2301.5,-1152 2476.5,-1152 2476.5,-1152 2482.5,-1152 2488.5,-1158 2488.5,-1164 2488.5,-1164 2488.5,-1176 2488.5,-1176 2488.5,-1182 2482.5,-1188 2476.5,-1188"/>
<text text-anchor="middle" x="2389" y="-1167.5" font-family="sans" font-size="10.00" fill="#000000">CorcesATAC_fetch_ngs_fastq_to_bam</text>
</g>
<!-- 20&#45;&gt;21 -->
<g id="edge63" class="edge">
<title>20&#45;&gt;21</title>
<path fill="none" stroke="#c0c0c0" stroke-width="2" d="M2326.9444,-1223.8314C2337.0691,-1215.0485 2349.3777,-1204.3712 2360.3548,-1194.8489"/>
<polygon fill="#c0c0c0" stroke="#c0c0c0" stroke-width="2" points="2362.8019,-1197.3595 2368.0623,-1188.1628 2358.2149,-1192.0718 2362.8019,-1197.3595"/>
</g>
<!-- 21&#45;&gt;19 -->
<g id="edge61" class="edge">
<title>21&#45;&gt;19</title>
<path fill="none" stroke="#c0c0c0" stroke-width="2" d="M2377.8969,-1151.8314C2372.9326,-1143.7079 2366.9778,-1133.9637 2361.5072,-1125.0118"/>
<polygon fill="#c0c0c0" stroke="#c0c0c0" stroke-width="2" points="2364.4536,-1123.121 2356.2526,-1116.4133 2358.4806,-1126.7712 2364.4536,-1123.121"/>
</g>
<!-- 22&#45;&gt;1 -->
<g id="edge38" class="edge">
<title>22&#45;&gt;1</title>
<path fill="none" stroke="#c0c0c0" stroke-width="2" d="M1881.094,-647.9272C1862.9705,-639.9545 1845.9046,-628.486 1835,-612 1826.1731,-598.6551 1829.1996,-590.9116 1835,-576 1866.4744,-495.0856 1896.6352,-482.8583 1967,-432 1984.662,-419.2342 2005.8231,-408.4844 2025.4232,-400.0205"/>
<polygon fill="#c0c0c0" stroke="#c0c0c0" stroke-width="2" points="2027.0273,-403.1433 2034.8976,-396.0504 2024.3219,-396.6872 2027.0273,-403.1433"/>
</g>
<!-- 23 -->
<g id="node24" class="node">
<title>23</title>
<path fill="none" stroke="#56d85b" stroke-width="2" d="M2068,-612C2068,-612 1856,-612 1856,-612 1850,-612 1844,-606 1844,-600 1844,-600 1844,-588 1844,-588 1844,-582 1850,-576 1856,-576 1856,-576 2068,-576 2068,-576 2074,-576 2080,-582 2080,-588 2080,-588 2080,-600 2080,-600 2080,-606 2074,-612 2068,-612"/>
<text text-anchor="middle" x="1962" y="-591.5" font-family="sans" font-size="10.00" fill="#000000">CorcesINT_spilterlize_integrate_norm_edgeR</text>
</g>
<!-- 22&#45;&gt;23 -->
<g id="edge65" class="edge">
<title>22&#45;&gt;23</title>
<path fill="none" stroke="#c0c0c0" stroke-width="2" d="M1962,-647.8314C1962,-640.131 1962,-630.9743 1962,-622.4166"/>
<polygon fill="#c0c0c0" stroke="#c0c0c0" stroke-width="2" points="1965.5001,-622.4132 1962,-612.4133 1958.5001,-622.4133 1965.5001,-622.4132"/>
</g>
<!-- 24 -->
<g id="node25" class="node">
<title>24</title>
<path fill="none" stroke="#56d85b" stroke-width="2" d="M2319.5,-612C2319.5,-612 2110.5,-612 2110.5,-612 2104.5,-612 2098.5,-606 2098.5,-600 2098.5,-600 2098.5,-588 2098.5,-588 2098.5,-582 2104.5,-576 2110.5,-576 2110.5,-576 2319.5,-576 2319.5,-576 2325.5,-576 2331.5,-582 2331.5,-588 2331.5,-588 2331.5,-600 2331.5,-600 2331.5,-606 2325.5,-612 2319.5,-612"/>
<text text-anchor="middle" x="2215" y="-591.5" font-family="sans" font-size="10.00" fill="#000000">CorcesINT_spilterlize_integrate_norm_voom</text>
</g>
<!-- 22&#45;&gt;24 -->
<g id="edge66" class="edge">
<title>22&#45;&gt;24</title>
<path fill="none" stroke="#c0c0c0" stroke-width="2" d="M2025.516,-647.9243C2060.8545,-637.8675 2104.9971,-625.3052 2141.7837,-614.8363"/>
<polygon fill="#c0c0c0" stroke="#c0c0c0" stroke-width="2" points="2142.7978,-618.1867 2151.4578,-612.0831 2140.8817,-611.454 2142.7978,-618.1867"/>
</g>
<!-- 22&#45;&gt;27 -->
<g id="edge74" class="edge">
<title>22&#45;&gt;27</title>
<path fill="none" stroke="#c0c0c0" stroke-width="2" d="M1886.7051,-647.964C1865.0395,-639.8437 1842.761,-628.2884 1826,-612 1765.3204,-553.0314 1730.567,-509.7274 1764,-432 1768.7491,-420.9589 1776.9885,-411.1176 1785.7506,-402.9593"/>
<polygon fill="#c0c0c0" stroke="#c0c0c0" stroke-width="2" points="1788.245,-405.4291 1793.5106,-396.2354 1783.661,-400.1388 1788.245,-405.4291"/>
</g>
<!-- 23&#45;&gt;1 -->
<g id="edge39" class="edge">
<title>23&#45;&gt;1</title>
<path fill="none" stroke="#c0c0c0" stroke-width="2" d="M1959.8913,-575.8053C1957.1506,-543.661 1955.9129,-476.0658 1987,-432 1996.3248,-418.7821 2009.9332,-408.492 2024.1251,-400.6101"/>
<polygon fill="#c0c0c0" stroke="#c0c0c0" stroke-width="2" points="2025.7355,-403.7177 2033.0039,-396.0091 2022.5148,-397.5026 2025.7355,-403.7177"/>
</g>
<!-- 23&#45;&gt;25 -->
<g id="edge68" class="edge">
<title>23&#45;&gt;25</title>
<path fill="none" stroke="#c0c0c0" stroke-width="2" d="M2013.7166,-575.9243C2041.878,-566.0815 2076.9062,-553.8386 2106.4653,-543.5073"/>
<polygon fill="#c0c0c0" stroke="#c0c0c0" stroke-width="2" points="2107.9769,-546.6866 2116.2621,-540.0831 2105.6673,-540.0786 2107.9769,-546.6866"/>
</g>
<!-- 23&#45;&gt;27 -->
<g id="edge75" class="edge">
<title>23&#45;&gt;27</title>
<path fill="none" stroke="#c0c0c0" stroke-width="2" d="M1949.6228,-575.7261C1933.1182,-551.2923 1903.0706,-506.5776 1878,-468 1864.2684,-446.8704 1849.0074,-422.7384 1837.7345,-404.7852"/>
<polygon fill="#c0c0c0" stroke="#c0c0c0" stroke-width="2" points="1840.5095,-402.6222 1832.2324,-396.0087 1834.5787,-406.3405 1840.5095,-402.6222"/>
</g>
<!-- 24&#45;&gt;1 -->
<g id="edge35" class="edge">
<title>24&#45;&gt;1</title>
<path fill="none" stroke="#c0c0c0" stroke-width="2" d="M2263.9922,-575.8267C2279.6146,-567.434 2295.1343,-555.7491 2304,-540 2311.8488,-526.0574 2309.3216,-519.0891 2304,-504 2290.333,-465.2481 2279.6795,-455.5412 2246,-432 2225.8392,-417.9081 2201.6959,-407.2392 2178.3853,-399.2679"/>
<polygon fill="#c0c0c0" stroke="#c0c0c0" stroke-width="2" points="2179.4031,-395.9183 2168.8103,-396.1248 2177.2199,-402.5692 2179.4031,-395.9183"/>
</g>
<!-- 24&#45;&gt;25 -->
<g id="edge67" class="edge">
<title>24&#45;&gt;25</title>
<path fill="none" stroke="#c0c0c0" stroke-width="2" d="M2203.1399,-575.8314C2197.8371,-567.7079 2191.4763,-557.9637 2185.6327,-549.0118"/>
<polygon fill="#c0c0c0" stroke="#c0c0c0" stroke-width="2" points="2188.4169,-546.8739 2180.0198,-540.4133 2182.5552,-550.7003 2188.4169,-546.8739"/>
</g>
<!-- 24&#45;&gt;27 -->
<g id="edge71" class="edge">
<title>24&#45;&gt;27</title>
<path fill="none" stroke="#c0c0c0" stroke-width="2" d="M2136.8508,-575.9256C2103.5209,-566.9847 2064.64,-554.8883 2031,-540 1974.8199,-515.136 1961.0147,-506.3277 1913,-468 1895.5597,-454.0783 1893.8811,-447.6769 1878,-432 1868.2785,-422.4034 1857.4336,-412.0454 1847.8346,-402.9927"/>
<polygon fill="#c0c0c0" stroke="#c0c0c0" stroke-width="2" points="1850.1328,-400.3494 1840.4488,-396.0518 1845.3391,-405.4505 1850.1328,-400.3494"/>
</g>
<!-- 25&#45;&gt;1 -->
<g id="edge36" class="edge">
<title>25&#45;&gt;1</title>
<path fill="none" stroke="#c0c0c0" stroke-width="2" d="M2197.6941,-503.9172C2209.7836,-494.8022 2222.4379,-482.5731 2229,-468 2235.5694,-453.4108 2238.0831,-445.1718 2229,-432 2220.7941,-420.1002 2193.5833,-408.4911 2165.1463,-399.1052"/>
<polygon fill="#c0c0c0" stroke="#c0c0c0" stroke-width="2" points="2166.0722,-395.7267 2155.4811,-396.0102 2163.9373,-402.3932 2166.0722,-395.7267"/>
</g>
<!-- 26 -->
<g id="node27" class="node">
<title>26</title>
<path fill="none" stroke="#56d863" stroke-width="2" d="M2208,-468C2208,-468 2008,-468 2008,-468 2002,-468 1996,-462 1996,-456 1996,-456 1996,-444 1996,-444 1996,-438 2002,-432 2008,-432 2008,-432 2208,-432 2208,-432 2214,-432 2220,-438 2220,-444 2220,-444 2220,-456 2220,-456 2220,-462 2214,-468 2208,-468"/>
<text text-anchor="middle" x="2108" y="-447.5" font-family="sans" font-size="10.00" fill="#000000">CorcesINT_spilterlize_integrate_select_hvf</text>
</g>
<!-- 25&#45;&gt;26 -->
<g id="edge70" class="edge">
<title>25&#45;&gt;26</title>
<path fill="none" stroke="#c0c0c0" stroke-width="2" d="M2152.8595,-503.8314C2145.8783,-495.454 2137.4609,-485.3531 2129.8124,-476.1749"/>
<polygon fill="#c0c0c0" stroke="#c0c0c0" stroke-width="2" points="2132.4351,-473.8548 2123.3444,-468.4133 2127.0575,-478.3362 2132.4351,-473.8548"/>
</g>
<!-- 25&#45;&gt;27 -->
<g id="edge72" class="edge">
<title>25&#45;&gt;27</title>
<path fill="none" stroke="#c0c0c0" stroke-width="2" d="M2095.0209,-503.9353C2061.5454,-494.7125 2021.6794,-482.3921 1987,-468 1941.3335,-449.0482 1891.8585,-421.1891 1858.9127,-401.4959"/>
<polygon fill="#c0c0c0" stroke="#c0c0c0" stroke-width="2" points="1860.4474,-398.3345 1850.0756,-396.1722 1856.8352,-404.3305 1860.4474,-398.3345"/>
</g>
<!-- 25&#45;&gt;32 -->
<g id="edge78" class="edge">
<title>25&#45;&gt;32</title>
<path fill="none" stroke="#c0c0c0" stroke-width="2" d="M2264.3856,-503.9664C2298.7205,-495.5557 2337.0269,-483.8232 2370,-468 2394.3634,-456.3084 2393.587,-441.1896 2419,-432 2540.8537,-387.9363 2867.3253,-409.4734 3013.9731,-395.959"/>
<polygon fill="#c0c0c0" stroke="#c0c0c0" stroke-width="2" points="3014.6182,-399.4118 3024.2156,-394.924 3013.9144,-392.4472 3014.6182,-399.4118"/>
</g>
<!-- 25&#45;&gt;34 -->
<g id="edge84" class="edge">
<title>25&#45;&gt;34</title>
<path fill="none" stroke="#c0c0c0" stroke-width="2" d="M2229.8877,-503.9015C2259.2543,-494.5131 2294.5079,-482.0661 2325,-468 2353.5854,-454.8134 2356.1401,-441.9698 2386,-432 2417.3712,-421.5256 2591.493,-403.6256 2721.7392,-391.3249"/>
<polygon fill="#c0c0c0" stroke="#c0c0c0" stroke-width="2" points="2722.1983,-394.7972 2731.8261,-390.3751 2721.542,-387.8281 2722.1983,-394.7972"/>
</g>
<!-- 25&#45;&gt;37 -->
<g id="edge93" class="edge">
<title>25&#45;&gt;37</title>
<path fill="none" stroke="#c0c0c0" stroke-width="2" d="M2264.4038,-503.9243C2319.6283,-493.5697 2389.019,-480.5589 2445.8035,-469.9118"/>
<polygon fill="#c0c0c0" stroke="#c0c0c0" stroke-width="2" points="2446.706,-473.3037 2455.8897,-468.0207 2445.4159,-466.4236 2446.706,-473.3037"/>
</g>
<!-- 38 -->
<g id="node39" class="node">
<title>38</title>
<path fill="none" stroke="#56d892" stroke-width="2" d="M2618,-396C2618,-396 2388,-396 2388,-396 2382,-396 2376,-390 2376,-384 2376,-384 2376,-372 2376,-372 2376,-366 2382,-360 2388,-360 2388,-360 2618,-360 2618,-360 2624,-360 2630,-366 2630,-372 2630,-372 2630,-384 2630,-384 2630,-390 2624,-396 2618,-396"/>
<text text-anchor="middle" x="2503" y="-375.5" font-family="sans" font-size="10.00" fill="#000000">CorcesINT_unsupervised_analysis_umap_embed</text>
</g>
<!-- 25&#45;&gt;38 -->
<g id="edge95" class="edge">
<title>25&#45;&gt;38</title>
<path fill="none" stroke="#c0c0c0" stroke-width="2" d="M2200.9057,-503.9421C2236.546,-484.7657 2295.3724,-454.216 2348,-432 2376.4155,-420.0048 2408.5111,-408.4996 2436.0951,-399.2143"/>
<polygon fill="#c0c0c0" stroke="#c0c0c0" stroke-width="2" points="2437.2727,-402.5112 2445.6503,-396.0254 2435.0566,-395.8712 2437.2727,-402.5112"/>
</g>
<!-- 25&#45;&gt;44 -->
<g id="edge99" class="edge">
<title>25&#45;&gt;44</title>
<path fill="none" stroke="#c0c0c0" stroke-width="2" d="M2040.4951,-511.9887C1850.4035,-497.0633 1497.7795,-469.3764 1336.0561,-456.6783"/>
<polygon fill="#c0c0c0" stroke="#c0c0c0" stroke-width="2" points="1335.9268,-453.1575 1325.6835,-455.8639 1335.3788,-460.136 1335.9268,-453.1575"/>
</g>
<!-- 25&#45;&gt;53 -->
<g id="edge108" class="edge">
<title>25&#45;&gt;53</title>
<path fill="none" stroke="#c0c0c0" stroke-width="2" d="M2074.3372,-503.9921C2025.9539,-494.2289 1966.083,-481.4306 1913,-468 1829.9352,-446.9837 1735.4892,-418.3719 1673.99,-399.098"/>
<polygon fill="#c0c0c0" stroke="#c0c0c0" stroke-width="2" points="1674.9988,-395.7463 1664.4094,-396.0874 1672.9002,-402.4243 1674.9988,-395.7463"/>
</g>
<!-- 26&#45;&gt;1 -->
<g id="edge37" class="edge">
<title>26&#45;&gt;1</title>
<path fill="none" stroke="#c0c0c0" stroke-width="2" d="M2102.7008,-431.8314C2100.4302,-424.0463 2097.7254,-414.7729 2095.206,-406.1347"/>
<polygon fill="#c0c0c0" stroke="#c0c0c0" stroke-width="2" points="2098.5306,-405.0332 2092.3705,-396.4133 2091.8106,-406.9933 2098.5306,-405.0332"/>
</g>
<!-- 26&#45;&gt;27 -->
<g id="edge73" class="edge">
<title>26&#45;&gt;27</title>
<path fill="none" stroke="#c0c0c0" stroke-width="2" d="M2035.9482,-431.9243C1995.5196,-421.7819 1944.9328,-409.0912 1902.992,-398.5694"/>
<polygon fill="#c0c0c0" stroke="#c0c0c0" stroke-width="2" points="1903.6325,-395.1217 1893.0814,-396.0831 1901.9292,-401.9113 1903.6325,-395.1217"/>
</g>
<!-- 27&#45;&gt;0 -->
<g id="edge7" class="edge">
<title>27&#45;&gt;0</title>
<path fill="none" stroke="#c0c0c0" stroke-width="2" d="M1806.7495,-359.839C1773.7633,-318.4874 1688.4269,-215.3806 1603,-144 1580.2948,-125.0281 1561.1783,-133.9699 1547,-108 1539.333,-93.9566 1536.1035,-83.7161 1547,-72 1571.3077,-45.8641 2105.6202,-24.6923 2253.4139,-19.3206"/>
<polygon fill="#c0c0c0" stroke="#c0c0c0" stroke-width="2" points="2253.902,-22.8054 2263.7693,-18.9472 2253.6497,-15.81 2253.902,-22.8054"/>
</g>
<!-- 28&#45;&gt;0 -->
<g id="edge23" class="edge">
<title>28&#45;&gt;0</title>
<path fill="none" stroke="#c0c0c0" stroke-width="2" d="M3541.3682,-503.8166C3558.1323,-477.3548 3586,-426.1283 3586,-378 3586,-378 3586,-378 3586,-162 3586,-113.1738 3565.8036,-95.4915 3523,-72 3469.3528,-42.5573 2528.5734,-22.6282 2328.2976,-18.7084"/>
<polygon fill="#c0c0c0" stroke="#c0c0c0" stroke-width="2" points="2328.0714,-15.2034 2318.0053,-18.5083 2327.9353,-22.2021 2328.0714,-15.2034"/>
</g>
<!-- 29 -->
<g id="node30" class="node">
<title>29</title>
<path fill="none" stroke="#59d856" stroke-width="2" d="M503.5,-108C503.5,-108 298.5,-108 298.5,-108 292.5,-108 286.5,-102 286.5,-96 286.5,-96 286.5,-84 286.5,-84 286.5,-78 292.5,-72 298.5,-72 298.5,-72 503.5,-72 503.5,-72 509.5,-72 515.5,-78 515.5,-84 515.5,-84 515.5,-96 515.5,-96 515.5,-102 509.5,-108 503.5,-108"/>
<text text-anchor="middle" x="401" y="-87.5" font-family="sans" font-size="10.00" fill="#000000">CorcesINT_spilterlize_integrate_env_export</text>
</g>
<!-- 29&#45;&gt;0 -->
<g id="edge6" class="edge">
<title>29&#45;&gt;0</title>
<path fill="none" stroke="#c0c0c0" stroke-width="2" d="M515.7947,-72.868C518.8933,-72.5562 521.9661,-72.2657 525,-72 877.8844,-41.0929 2031.5269,-21.9999 2253.7673,-18.5614"/>
<polygon fill="#c0c0c0" stroke="#c0c0c0" stroke-width="2" points="2253.9843,-22.0586 2263.9292,-18.4051 2253.8765,-15.0594 2253.9843,-22.0586"/>
</g>
<!-- 30 -->
<g id="node31" class="node">
<title>30</title>
<path fill="none" stroke="#59d856" stroke-width="2" d="M762,-108C762,-108 546,-108 546,-108 540,-108 534,-102 534,-96 534,-96 534,-84 534,-84 534,-78 540,-72 546,-72 546,-72 762,-72 762,-72 768,-72 774,-78 774,-84 774,-84 774,-96 774,-96 774,-102 768,-108 762,-108"/>
<text text-anchor="middle" x="654" y="-87.5" font-family="sans" font-size="10.00" fill="#000000">CorcesINT_spilterlize_integrate_config_export</text>
</g>
<!-- 30&#45;&gt;0 -->
<g id="edge25" class="edge">
<title>30&#45;&gt;0</title>
<path fill="none" stroke="#c0c0c0" stroke-width="2" d="M774.12,-72.8267C777.1078,-72.5325 780.0715,-72.2561 783,-72 1081.5342,-45.8966 2050.8607,-23.3216 2253.608,-18.8163"/>
<polygon fill="#c0c0c0" stroke="#c0c0c0" stroke-width="2" points="2253.8265,-22.3124 2263.7466,-18.5919 2253.6715,-15.3141 2253.8265,-22.3124"/>
</g>
<!-- 31 -->
<g id="node32" class="node">
<title>31</title>
<path fill="none" stroke="#59d856" stroke-width="2" d="M1019.5,-108C1019.5,-108 804.5,-108 804.5,-108 798.5,-108 792.5,-102 792.5,-96 792.5,-96 792.5,-84 792.5,-84 792.5,-78 798.5,-72 804.5,-72 804.5,-72 1019.5,-72 1019.5,-72 1025.5,-72 1031.5,-78 1031.5,-84 1031.5,-84 1031.5,-96 1031.5,-96 1031.5,-102 1025.5,-108 1019.5,-108"/>
<text text-anchor="middle" x="912" y="-87.5" font-family="sans" font-size="10.00" fill="#000000">CorcesINT_spilterlize_integrate_annot_export</text>
</g>
<!-- 31&#45;&gt;0 -->
<g id="edge17" class="edge">
<title>31&#45;&gt;0</title>
<path fill="none" stroke="#c0c0c0" stroke-width="2" d="M1031.7519,-73.3696C1036.5603,-72.8743 1041.3238,-72.4146 1046,-72 1521.6231,-29.827 2102.5071,-20.2348 2253.648,-18.3914"/>
<polygon fill="#c0c0c0" stroke="#c0c0c0" stroke-width="2" points="2253.8222,-21.8897 2263.7801,-18.2718 2253.7395,-14.8902 2253.8222,-21.8897"/>
</g>
<!-- 32&#45;&gt;0 -->
<g id="edge5" class="edge">
<title>32&#45;&gt;0</title>
<path fill="none" stroke="#c0c0c0" stroke-width="2" d="M3229.7715,-362.5677C3235.5999,-361.6976 3241.374,-360.837 3247,-360 3301.2126,-351.9348 3451.0694,-361.5446 3491,-324 3520.7838,-295.9958 3510,-274.8816 3510,-234 3510,-234 3510,-234 3510,-162 3510,-112.9176 3489.0813,-95.5178 3446,-72 3395.8512,-44.6241 2521.1967,-23.2273 2328.397,-18.8304"/>
<polygon fill="#c0c0c0" stroke="#c0c0c0" stroke-width="2" points="2328.2802,-15.327 2318.2034,-18.5994 2328.1215,-22.3252 2328.2802,-15.327"/>
</g>
<!-- 32&#45;&gt;33 -->
<g id="edge83" class="edge">
<title>32&#45;&gt;33</title>
<path fill="none" stroke="#c0c0c0" stroke-width="2" d="M3101.0088,-359.8314C3088.0784,-350.7927 3072.2778,-339.7476 3058.3617,-330.0198"/>
<polygon fill="#c0c0c0" stroke="#c0c0c0" stroke-width="2" points="3060.1843,-327.0235 3049.9829,-324.1628 3056.1737,-332.7608 3060.1843,-327.0235"/>
</g>
<!-- 32&#45;&gt;35 -->
<g id="edge88" class="edge">
<title>32&#45;&gt;35</title>
<path fill="none" stroke="#c0c0c0" stroke-width="2" d="M3179.7208,-359.9243C3208.5538,-350.0387 3244.4481,-337.7321 3274.6631,-327.3726"/>
<polygon fill="#c0c0c0" stroke="#c0c0c0" stroke-width="2" points="3275.9332,-330.6373 3284.2575,-324.0831 3273.6629,-324.0156 3275.9332,-330.6373"/>
</g>
<!-- 32&#45;&gt;36 -->
<g id="edge92" class="edge">
<title>32&#45;&gt;36</title>
<path fill="none" stroke="#c0c0c0" stroke-width="2" d="M3024.3336,-360.5249C2962.708,-350.0354 2884.1382,-336.6618 2820.2355,-325.7848"/>
<polygon fill="#c0c0c0" stroke="#c0c0c0" stroke-width="2" points="2820.5559,-322.289 2810.1103,-324.0613 2819.3812,-329.1898 2820.5559,-322.289"/>
</g>
<!-- 33&#45;&gt;0 -->
<g id="edge28" class="edge">
<title>33&#45;&gt;0</title>
<path fill="none" stroke="#c0c0c0" stroke-width="2" d="M3107.2023,-287.9372C3245.1849,-254.514 3496.7732,-176.7635 3397,-72 3359.3449,-32.4616 2517.2753,-20.5695 2328.3789,-18.395"/>
<polygon fill="#c0c0c0" stroke="#c0c0c0" stroke-width="2" points="2328.166,-14.8925 2318.1271,-18.2792 2328.0869,-21.892 2328.166,-14.8925"/>
</g>
<!-- 34&#45;&gt;33 -->
<g id="edge81" class="edge">
<title>34&#45;&gt;33</title>
<path fill="none" stroke="#c0c0c0" stroke-width="2" d="M2908.113,-359.8314C2928.7512,-350.2446 2954.2484,-338.4008 2976.0673,-328.2655"/>
<polygon fill="#c0c0c0" stroke="#c0c0c0" stroke-width="2" points="2977.5734,-331.4251 2985.1682,-324.038 2974.6244,-325.0766 2977.5734,-331.4251"/>
</g>
<!-- 34&#45;&gt;35 -->
<g id="edge87" class="edge">
<title>34&#45;&gt;35</title>
<path fill="none" stroke="#c0c0c0" stroke-width="2" d="M2986.1904,-359.9707C3054.1892,-349.5094 3139.8876,-336.325 3209.56,-325.6062"/>
<polygon fill="#c0c0c0" stroke="#c0c0c0" stroke-width="2" points="3210.3677,-329.0232 3219.7192,-324.0432 3209.3032,-322.1046 3210.3677,-329.0232"/>
</g>
<!-- 34&#45;&gt;36 -->
<g id="edge90" class="edge">
<title>34&#45;&gt;36</title>
<path fill="none" stroke="#c0c0c0" stroke-width="2" d="M2827.3635,-359.8314C2805.2958,-350.2018 2778.0093,-338.295 2754.7143,-328.1299"/>
<polygon fill="#c0c0c0" stroke="#c0c0c0" stroke-width="2" points="2755.9023,-324.8296 2745.3371,-324.038 2753.1026,-331.2454 2755.9023,-324.8296"/>
</g>
<!-- 35&#45;&gt;0 -->
<g id="edge26" class="edge">
<title>35&#45;&gt;0</title>
<path fill="none" stroke="#c0c0c0" stroke-width="2" d="M3354.4986,-287.9122C3394.0585,-244.8927 3482.3957,-135.3481 3422,-72 3383.4132,-31.5269 2519.6666,-20.3383 2328.3139,-18.3525"/>
<polygon fill="#c0c0c0" stroke="#c0c0c0" stroke-width="2" points="2328.2272,-14.8516 2318.1921,-18.2496 2328.156,-21.8512 2328.2272,-14.8516"/>
</g>
<!-- 36&#45;&gt;0 -->
<g id="edge32" class="edge">
<title>36&#45;&gt;0</title>
<path fill="none" stroke="#c0c0c0" stroke-width="2" d="M2811.3489,-287.9362C3021.6709,-250.3338 3460.5651,-159.8235 3377,-72 3340.0815,-33.2002 2514.971,-20.753 2328.3064,-18.4289"/>
<polygon fill="#c0c0c0" stroke="#c0c0c0" stroke-width="2" points="2328.2098,-14.9276 2318.1677,-18.3049 2328.1241,-21.9271 2328.2098,-14.9276"/>
</g>
<!-- 37&#45;&gt;0 -->
<g id="edge8" class="edge">
<title>37&#45;&gt;0</title>
<path fill="none" stroke="#c0c0c0" stroke-width="2" d="M2676.0972,-446.7506C2814.1155,-441.6271 3043.2965,-428.6189 3238,-396 3363.8779,-374.9115 3421.8598,-410.1835 3516,-324 3547.313,-295.3335 3548,-276.4532 3548,-234 3548,-234 3548,-234 3548,-162 3548,-113.1738 3527.7873,-95.5213 3485,-72 3433.1078,-43.4735 2524.1835,-22.8805 2328.091,-18.7579"/>
<polygon fill="#c0c0c0" stroke="#c0c0c0" stroke-width="2" points="2328.0721,-15.2569 2318.0011,-18.5472 2327.9258,-22.2553 2328.0721,-15.2569"/>
</g>
<!-- 37&#45;&gt;38 -->
<g id="edge96" class="edge">
<title>37&#45;&gt;38</title>
<path fill="none" stroke="#c0c0c0" stroke-width="2" d="M2539.6352,-431.8314C2534.0491,-423.6232 2527.337,-413.7606 2521.1928,-404.7323"/>
<polygon fill="#c0c0c0" stroke="#c0c0c0" stroke-width="2" points="2524.051,-402.7112 2515.5313,-396.4133 2518.264,-406.6496 2524.051,-402.7112"/>
</g>
<!-- 38&#45;&gt;0 -->
<g id="edge19" class="edge">
<title>38&#45;&gt;0</title>
<path fill="none" stroke="#c0c0c0" stroke-width="2" d="M2504.258,-359.7733C2506.828,-307.0829 2506.6441,-153.1734 2425,-72 2398.5881,-45.7404 2357.7315,-31.7758 2328.0739,-24.6781"/>
<polygon fill="#c0c0c0" stroke="#c0c0c0" stroke-width="2" points="2328.6156,-21.2128 2318.0927,-22.445 2327.0873,-28.044 2328.6156,-21.2128"/>
</g>
<!-- 38&#45;&gt;33 -->
<g id="edge82" class="edge">
<title>38&#45;&gt;33</title>
<path fill="none" stroke="#c0c0c0" stroke-width="2" d="M2630.1177,-360.4329C2706.8139,-349.8338 2804.6346,-336.3154 2883.6036,-325.4022"/>
<polygon fill="#c0c0c0" stroke="#c0c0c0" stroke-width="2" points="2884.2028,-328.8527 2893.6295,-324.0167 2883.2445,-321.9186 2884.2028,-328.8527"/>
</g>
<!-- 38&#45;&gt;36 -->
<g id="edge91" class="edge">
<title>38&#45;&gt;36</title>
<path fill="none" stroke="#c0c0c0" stroke-width="2" d="M2553.4613,-359.9243C2580.9392,-350.0815 2615.1172,-337.8386 2643.9588,-327.5073"/>
<polygon fill="#c0c0c0" stroke="#c0c0c0" stroke-width="2" points="2645.284,-330.7505 2653.5179,-324.0831 2642.9233,-324.1605 2645.284,-330.7505"/>
</g>
<!-- 39 -->
<g id="node40" class="node">
<title>39</title>
<path fill="none" stroke="#56d88a" stroke-width="2" d="M2408.5,-180C2408.5,-180 2127.5,-180 2127.5,-180 2121.5,-180 2115.5,-174 2115.5,-168 2115.5,-168 2115.5,-156 2115.5,-156 2115.5,-150 2121.5,-144 2127.5,-144 2127.5,-144 2408.5,-144 2408.5,-144 2414.5,-144 2420.5,-150 2420.5,-156 2420.5,-156 2420.5,-168 2420.5,-168 2420.5,-174 2414.5,-180 2408.5,-180"/>
<text text-anchor="middle" x="2268" y="-159.5" font-family="sans" font-size="10.00" fill="#000000">CorcesINT_unsupervised_analysis_plot_umap_connectivity</text>
</g>
<!-- 38&#45;&gt;39 -->
<g id="edge97" class="edge">
<title>38&#45;&gt;39</title>
<path fill="none" stroke="#c0c0c0" stroke-width="2" d="M2425.8882,-359.965C2336.1686,-337.2371 2196.3964,-295.8164 2166,-252 2156.8801,-238.8536 2157.7471,-229.7073 2166,-216 2173.9694,-202.7637 2186.392,-192.6019 2199.862,-184.8634"/>
<polygon fill="#c0c0c0" stroke="#c0c0c0" stroke-width="2" points="2201.626,-187.8899 2208.8288,-180.12 2198.3528,-181.7023 2201.626,-187.8899"/>
</g>
<!-- 40 -->
<g id="node41" class="node">
<title>40</title>
<path fill="none" stroke="#56d88a" stroke-width="2" d="M2463,-252C2463,-252 2187,-252 2187,-252 2181,-252 2175,-246 2175,-240 2175,-240 2175,-228 2175,-228 2175,-222 2181,-216 2187,-216 2187,-216 2463,-216 2463,-216 2469,-216 2475,-222 2475,-228 2475,-228 2475,-240 2475,-240 2475,-246 2469,-252 2463,-252"/>
<text text-anchor="middle" x="2325" y="-231.5" font-family="sans" font-size="10.00" fill="#000000">CorcesINT_unsupervised_analysis_plot_umap_diagnostics</text>
</g>
<!-- 38&#45;&gt;40 -->
<g id="edge98" class="edge">
<title>38&#45;&gt;40</title>
<path fill="none" stroke="#c0c0c0" stroke-width="2" d="M2480.4562,-359.7623C2448.7583,-334.119 2390.9307,-287.3372 2355.4407,-258.6262"/>
<polygon fill="#c0c0c0" stroke="#c0c0c0" stroke-width="2" points="2357.3366,-255.658 2347.3608,-252.0896 2352.934,-261.1002 2357.3366,-255.658"/>
</g>
<!-- 39&#45;&gt;0 -->
<g id="edge24" class="edge">
<title>39&#45;&gt;0</title>
<path fill="none" stroke="#c0c0c0" stroke-width="2" d="M2337.2364,-143.9324C2354.8133,-135.885 2371.6359,-124.3774 2382,-108 2390.556,-94.4798 2389.917,-85.904 2382,-72 2370.3604,-51.5583 2347.598,-38.0559 2327.7517,-29.6651"/>
<polygon fill="#c0c0c0" stroke="#c0c0c0" stroke-width="2" points="2328.8919,-26.3526 2318.3047,-25.9486 2326.3292,-32.8667 2328.8919,-26.3526"/>
</g>
<!-- 40&#45;&gt;0 -->
<g id="edge29" class="edge">
<title>40&#45;&gt;0</title>
<path fill="none" stroke="#c0c0c0" stroke-width="2" d="M2385.5756,-215.9994C2402.5881,-207.8421 2419.1233,-196.2569 2429,-180 2437.3076,-166.3258 2432.0445,-159.7077 2429,-144 2422.4356,-110.1321 2423.436,-97.3156 2400,-72 2380.5423,-50.9818 2351.1081,-37.0775 2327.7295,-28.6487"/>
<polygon fill="#c0c0c0" stroke="#c0c0c0" stroke-width="2" points="2328.7221,-25.2893 2318.1276,-25.3669 2326.4581,-31.9131 2328.7221,-25.2893"/>
</g>
<!-- 41 -->
<g id="node42" class="node">
<title>41</title>
<path fill="none" stroke="#56d87b" stroke-width="2" d="M1786,-108C1786,-108 1568,-108 1568,-108 1562,-108 1556,-102 1556,-96 1556,-96 1556,-84 1556,-84 1556,-78 1562,-72 1568,-72 1568,-72 1786,-72 1786,-72 1792,-72 1798,-78 1798,-84 1798,-84 1798,-96 1798,-96 1798,-102 1792,-108 1786,-108"/>
<text text-anchor="middle" x="1677" y="-87.5" font-family="sans" font-size="10.00" fill="#000000">CorcesINT_unsupervised_analysis_env_export</text>
</g>
<!-- 41&#45;&gt;0 -->
<g id="edge30" class="edge">
<title>41&#45;&gt;0</title>
<path fill="none" stroke="#c0c0c0" stroke-width="2" d="M1798.0837,-73.1276C1801.085,-72.7439 1804.0609,-72.3674 1807,-72 1973.4039,-51.2006 2172.4942,-30.2156 2253.7304,-21.8183"/>
<polygon fill="#c0c0c0" stroke="#c0c0c0" stroke-width="2" points="2254.358,-25.2722 2263.946,-20.7645 2253.6397,-18.3092 2254.358,-25.2722"/>
</g>
<!-- 42 -->
<g id="node43" class="node">
<title>42</title>
<path fill="none" stroke="#56d873" stroke-width="2" d="M2058,-108C2058,-108 1828,-108 1828,-108 1822,-108 1816,-102 1816,-96 1816,-96 1816,-84 1816,-84 1816,-78 1822,-72 1828,-72 1828,-72 2058,-72 2058,-72 2064,-72 2070,-78 2070,-84 2070,-84 2070,-96 2070,-96 2070,-102 2064,-108 2058,-108"/>
<text text-anchor="middle" x="1943" y="-87.5" font-family="sans" font-size="10.00" fill="#000000">CorcesINT_unsupervised_analysis_config_export</text>
</g>
<!-- 42&#45;&gt;0 -->
<g id="edge22" class="edge">
<title>42&#45;&gt;0</title>
<path fill="none" stroke="#c0c0c0" stroke-width="2" d="M2030.3659,-71.9243C2102.4696,-57.0063 2201.2204,-36.5751 2254.0643,-25.6419"/>
<polygon fill="#c0c0c0" stroke="#c0c0c0" stroke-width="2" points="2254.9161,-29.0399 2263.9995,-23.5863 2253.4978,-22.185 2254.9161,-29.0399"/>
</g>
<!-- 43 -->
<g id="node44" class="node">
<title>43</title>
<path fill="none" stroke="#56d86b" stroke-width="2" d="M2328,-108C2328,-108 2100,-108 2100,-108 2094,-108 2088,-102 2088,-96 2088,-96 2088,-84 2088,-84 2088,-78 2094,-72 2100,-72 2100,-72 2328,-72 2328,-72 2334,-72 2340,-78 2340,-84 2340,-84 2340,-96 2340,-96 2340,-102 2334,-108 2328,-108"/>
<text text-anchor="middle" x="2214" y="-87.5" font-family="sans" font-size="10.00" fill="#000000">CorcesINT_unsupervised_analysis_annot_export</text>
</g>
<!-- 43&#45;&gt;0 -->
<g id="edge16" class="edge">
<title>43&#45;&gt;0</title>
<path fill="none" stroke="#c0c0c0" stroke-width="2" d="M2233.4304,-71.8314C2242.732,-63.1337 2254.0204,-52.5783 2264.1286,-43.1265"/>
<polygon fill="#c0c0c0" stroke="#c0c0c0" stroke-width="2" points="2266.6621,-45.5493 2271.5759,-36.1628 2261.8811,-40.4363 2266.6621,-45.5493"/>
</g>
<!-- 44&#45;&gt;0 -->
<g id="edge18" class="edge">
<title>44&#45;&gt;0</title>
<path fill="none" stroke="#c0c0c0" stroke-width="2" d="M1176.4383,-447.4356C939.6126,-438.311 220,-402.6343 220,-306 220,-306 220,-306 220,-162 220,-117.0781 227.999,-95.9562 266,-72 309.7163,-44.4408 1981.1183,-21.9558 2253.6182,-18.4696"/>
<polygon fill="#c0c0c0" stroke="#c0c0c0" stroke-width="2" points="2253.8289,-21.9672 2263.7835,-18.34 2253.7397,-14.9678 2253.8289,-21.9672"/>
</g>
<!-- 46 -->
<g id="node47" class="node">
<title>46</title>
<path fill="none" stroke="#80d856" stroke-width="2" d="M453.5,-180C453.5,-180 302.5,-180 302.5,-180 296.5,-180 290.5,-174 290.5,-168 290.5,-168 290.5,-156 290.5,-156 290.5,-150 296.5,-144 302.5,-144 302.5,-144 453.5,-144 453.5,-144 459.5,-144 465.5,-150 465.5,-156 465.5,-156 465.5,-168 465.5,-168 465.5,-174 459.5,-180 453.5,-180"/>
<text text-anchor="middle" x="378" y="-159.5" font-family="sans" font-size="10.00" fill="#000000">CorcesINT_dea_limma_volcanos</text>
</g>
<!-- 44&#45;&gt;46 -->
<g id="edge105" class="edge">
<title>44&#45;&gt;46</title>
<path fill="none" stroke="#c0c0c0" stroke-width="2" d="M1176.2788,-441.1675C1022.8178,-422.2197 677.6012,-375.2113 571,-324 500.4305,-290.0984 434.2067,-224.4249 400.7409,-187.9701"/>
<polygon fill="#c0c0c0" stroke="#c0c0c0" stroke-width="2" points="403.0314,-185.2854 393.7223,-180.2266 397.8448,-189.9865 403.0314,-185.2854"/>
</g>
<!-- 47 -->
<g id="node48" class="node">
<title>47</title>
<path fill="none" stroke="#97d856" stroke-width="2" d="M1109.5,-396C1109.5,-396 952.5,-396 952.5,-396 946.5,-396 940.5,-390 940.5,-384 940.5,-384 940.5,-372 940.5,-372 940.5,-366 946.5,-360 952.5,-360 952.5,-360 1109.5,-360 1109.5,-360 1115.5,-360 1121.5,-366 1121.5,-372 1121.5,-372 1121.5,-384 1121.5,-384 1121.5,-390 1115.5,-396 1109.5,-396"/>
<text text-anchor="middle" x="1031" y="-375.5" font-family="sans" font-size="10.00" fill="#000000">CorcesINT_dea_limma_aggregate</text>
</g>
<!-- 44&#45;&gt;47 -->
<g id="edge106" class="edge">
<title>44&#45;&gt;47</title>
<path fill="none" stroke="#c0c0c0" stroke-width="2" d="M1195.7687,-431.9243C1165.4319,-421.9959 1127.6335,-409.6255 1095.8945,-399.2382"/>
<polygon fill="#c0c0c0" stroke="#c0c0c0" stroke-width="2" points="1096.8467,-395.8672 1086.254,-396.0831 1094.6694,-402.52 1096.8467,-395.8672"/>
</g>
<!-- 48 -->
<g id="node49" class="node">
<title>48</title>
<path fill="none" stroke="#88d856" stroke-width="2" d="M180,-252C180,-252 12,-252 12,-252 6,-252 0,-246 0,-240 0,-240 0,-228 0,-228 0,-222 6,-216 12,-216 12,-216 180,-216 180,-216 186,-216 192,-222 192,-228 192,-228 192,-240 192,-240 192,-246 186,-252 180,-252"/>
<text text-anchor="middle" x="96" y="-231.5" font-family="sans" font-size="10.00" fill="#000000">CorcesINT_dea_limma_lfc_heatmap</text>
</g>
<!-- 44&#45;&gt;48 -->
<g id="edge107" class="edge">
<title>44&#45;&gt;48</title>
<path fill="none" stroke="#c0c0c0" stroke-width="2" d="M1176.4309,-447.962C944.4024,-441.3825 248.1679,-419.7513 206,-396 153.2502,-366.2885 120.6591,-299.5184 105.707,-261.6274"/>
<polygon fill="#c0c0c0" stroke="#c0c0c0" stroke-width="2" points="108.9496,-260.3075 102.1193,-252.2083 102.4081,-262.7992 108.9496,-260.3075"/>
</g>
<!-- 44&#45;&gt;53 -->
<g id="edge109" class="edge">
<title>44&#45;&gt;53</title>
<path fill="none" stroke="#c0c0c0" stroke-width="2" d="M1325.8389,-434.9064C1383.7488,-423.2271 1463.9347,-407.0552 1524.0296,-394.9352"/>
<polygon fill="#c0c0c0" stroke="#c0c0c0" stroke-width="2" points="1524.7613,-398.3582 1533.8719,-392.9502 1523.3773,-391.4964 1524.7613,-398.3582"/>
</g>
<!-- 45&#45;&gt;44 -->
<g id="edge100" class="edge">
<title>45&#45;&gt;44</title>
<path fill="none" stroke="#c0c0c0" stroke-width="2" d="M1548.1533,-791.746C1537.2922,-764.7781 1519,-712.4617 1519,-666 1519,-666 1519,-666 1519,-594 1519,-509.4104 1414.1156,-474.3014 1335.5755,-459.869"/>
<polygon fill="#c0c0c0" stroke="#c0c0c0" stroke-width="2" points="1336.1073,-456.409 1325.6529,-458.1285 1334.8978,-463.3037 1336.1073,-456.409"/>
</g>
<!-- 46&#45;&gt;0 -->
<g id="edge21" class="edge">
<title>46&#45;&gt;0</title>
<path fill="none" stroke="#c0c0c0" stroke-width="2" d="M319.6599,-143.8856C302.9498,-135.6937 286.6591,-124.1172 277,-108 268.7751,-94.2759 265.8389,-83.4643 277,-72 312.8532,-35.1726 1981.5571,-20.4431 2253.6689,-18.2844"/>
<polygon fill="#c0c0c0" stroke="#c0c0c0" stroke-width="2" points="2253.8478,-21.7832 2263.8199,-18.2046 2253.7927,-14.7834 2253.8478,-21.7832"/>
</g>
<!-- 47&#45;&gt;0 -->
<g id="edge15" class="edge">
<title>47&#45;&gt;0</title>
<path fill="none" stroke="#c0c0c0" stroke-width="2" d="M940.1232,-370.4931C830.1912,-360.672 656.7994,-342.5234 633,-324 593.7791,-293.4739 575.9071,-256.9989 604,-216 716.8424,-51.3172 862.7864,-199.9193 1040,-108 1059.5362,-97.8667 1053.9878,-81.1575 1074,-72 1128.9111,-46.873 2054.75,-23.594 2253.5855,-18.8702"/>
<polygon fill="#c0c0c0" stroke="#c0c0c0" stroke-width="2" points="2253.8978,-22.3639 2263.8123,-18.6284 2253.7323,-15.3658 2253.8978,-22.3639"/>
</g>
<!-- 54 -->
<g id="node55" class="node">
<title>54</title>
<path fill="none" stroke="#78d856" stroke-width="2" d="M872.5,-252C872.5,-252 625.5,-252 625.5,-252 619.5,-252 613.5,-246 613.5,-240 613.5,-240 613.5,-228 613.5,-228 613.5,-222 619.5,-216 625.5,-216 625.5,-216 872.5,-216 872.5,-216 878.5,-216 884.5,-222 884.5,-228 884.5,-228 884.5,-240 884.5,-240 884.5,-246 878.5,-252 872.5,-252"/>
<text text-anchor="middle" x="749" y="-231.5" font-family="sans" font-size="10.00" fill="#000000">CorcesINT_enrichment_analysis_gene_ORA_GSEApy</text>
</g>
<!-- 47&#45;&gt;54 -->
<g id="edge112" class="edge">
<title>47&#45;&gt;54</title>
<path fill="none" stroke="#c0c0c0" stroke-width="2" d="M940.4711,-371.5567C832.2428,-362.9155 663.2041,-346.0698 644,-324 633.4971,-311.9298 635.6658,-301.658 644,-288 652.1458,-274.6509 664.7613,-264.4624 678.4591,-256.7362"/>
<polygon fill="#c0c0c0" stroke="#c0c0c0" stroke-width="2" points="680.3145,-259.7168 687.5808,-252.0062 677.0921,-253.5026 680.3145,-259.7168"/>
</g>
<!-- 55 -->
<g id="node56" class="node">
<title>55</title>
<path fill="none" stroke="#88d856" stroke-width="2" d="M1107,-324C1107,-324 955,-324 955,-324 949,-324 943,-318 943,-312 943,-312 943,-300 943,-300 943,-294 949,-288 955,-288 955,-288 1107,-288 1107,-288 1113,-288 1119,-294 1119,-300 1119,-300 1119,-312 1119,-312 1119,-318 1113,-324 1107,-324"/>
<text text-anchor="middle" x="1031" y="-303.5" font-family="sans" font-size="10.00" fill="#000000">CorcesINT_dea_limma_fetch_file</text>
</g>
<!-- 47&#45;&gt;55 -->
<g id="edge114" class="edge">
<title>47&#45;&gt;55</title>
<path fill="none" stroke="#c0c0c0" stroke-width="2" d="M1031,-359.8314C1031,-352.131 1031,-342.9743 1031,-334.4166"/>
<polygon fill="#c0c0c0" stroke="#c0c0c0" stroke-width="2" points="1034.5001,-334.4132 1031,-324.4133 1027.5001,-334.4133 1034.5001,-334.4132"/>
</g>
<!-- 58 -->
<g id="node59" class="node">
<title>58</title>
<path fill="none" stroke="#70d856" stroke-width="2" d="M1604.5,-252C1604.5,-252 1233.5,-252 1233.5,-252 1227.5,-252 1221.5,-246 1221.5,-240 1221.5,-240 1221.5,-228 1221.5,-228 1221.5,-222 1227.5,-216 1233.5,-216 1233.5,-216 1604.5,-216 1604.5,-216 1610.5,-216 1616.5,-222 1616.5,-228 1616.5,-228 1616.5,-240 1616.5,-240 1616.5,-246 1610.5,-252 1604.5,-252"/>
<text text-anchor="middle" x="1419" y="-231.5" font-family="sans" font-size="10.00" fill="#000000">CorcesINT_enrichment_analysis_gene_motif_enrichment_analysis_RcisTarget</text>
</g>
<!-- 47&#45;&gt;58 -->
<g id="edge120" class="edge">
<title>47&#45;&gt;58</title>
<path fill="none" stroke="#c0c0c0" stroke-width="2" d="M1068.7207,-359.8173C1087.2503,-350.194 1109.5101,-337.5714 1128,-324 1146.7547,-310.2342 1145.4113,-298.8323 1166,-288 1194.4566,-273.0282 1226.7842,-262.2071 1258.592,-254.386"/>
<polygon fill="#c0c0c0" stroke="#c0c0c0" stroke-width="2" points="1259.5173,-257.7638 1268.4418,-252.0539 1257.9045,-250.9521 1259.5173,-257.7638"/>
</g>
<!-- 48&#45;&gt;0 -->
<g id="edge20" class="edge">
<title>48&#45;&gt;0</title>
<path fill="none" stroke="#c0c0c0" stroke-width="2" d="M101.9487,-215.9333C114.6242,-180.7473 147.9755,-103.706 206,-72 252.7412,-46.4595 1975.8214,-22.2389 2253.4219,-18.4986"/>
<polygon fill="#c0c0c0" stroke="#c0c0c0" stroke-width="2" points="2253.8144,-21.9937 2263.7665,-18.3597 2253.7203,-14.9944 2253.8144,-21.9937"/>
</g>
<!-- 49 -->
<g id="node50" class="node">
<title>49</title>
<path fill="none" stroke="#8fd856" stroke-width="2" d="M2684,-108C2684,-108 2522,-108 2522,-108 2516,-108 2510,-102 2510,-96 2510,-96 2510,-84 2510,-84 2510,-78 2516,-72 2522,-72 2522,-72 2684,-72 2684,-72 2690,-72 2696,-78 2696,-84 2696,-84 2696,-96 2696,-96 2696,-102 2690,-108 2684,-108"/>
<text text-anchor="middle" x="2603" y="-87.5" font-family="sans" font-size="10.00" fill="#000000">CorcesINT_dea_limma_env_export</text>
</g>
<!-- 49&#45;&gt;0 -->
<g id="edge14" class="edge">
<title>49&#45;&gt;0</title>
<path fill="none" stroke="#c0c0c0" stroke-width="2" d="M2524.6719,-71.9243C2461.7767,-57.41 2376.2664,-37.6769 2328.0502,-26.55"/>
<polygon fill="#c0c0c0" stroke="#c0c0c0" stroke-width="2" points="2328.5935,-23.0835 2318.0626,-24.2452 2327.0195,-29.9043 2328.5935,-23.0835"/>
</g>
<!-- 50 -->
<g id="node51" class="node">
<title>50</title>
<path fill="none" stroke="#8fd856" stroke-width="2" d="M2899.5,-108C2899.5,-108 2726.5,-108 2726.5,-108 2720.5,-108 2714.5,-102 2714.5,-96 2714.5,-96 2714.5,-84 2714.5,-84 2714.5,-78 2720.5,-72 2726.5,-72 2726.5,-72 2899.5,-72 2899.5,-72 2905.5,-72 2911.5,-78 2911.5,-84 2911.5,-84 2911.5,-96 2911.5,-96 2911.5,-102 2905.5,-108 2899.5,-108"/>
<text text-anchor="middle" x="2813" y="-87.5" font-family="sans" font-size="10.00" fill="#000000">CorcesINT_dea_limma_config_export</text>
</g>
<!-- 50&#45;&gt;0 -->
<g id="edge3" class="edge">
<title>50&#45;&gt;0</title>
<path fill="none" stroke="#c0c0c0" stroke-width="2" d="M2714.4342,-73.4244C2711.2535,-72.9368 2708.1024,-72.4607 2705,-72 2566.2764,-51.3991 2400.7573,-31.092 2328.1898,-22.4024"/>
<polygon fill="#c0c0c0" stroke="#c0c0c0" stroke-width="2" points="2328.5164,-18.9166 2318.1719,-21.206 2327.6863,-25.8672 2328.5164,-18.9166"/>
</g>
<!-- 51 -->
<g id="node52" class="node">
<title>51</title>
<path fill="none" stroke="#8fd856" stroke-width="2" d="M3114,-108C3114,-108 2942,-108 2942,-108 2936,-108 2930,-102 2930,-96 2930,-96 2930,-84 2930,-84 2930,-78 2936,-72 2942,-72 2942,-72 3114,-72 3114,-72 3120,-72 3126,-78 3126,-84 3126,-84 3126,-96 3126,-96 3126,-102 3120,-108 3114,-108"/>
<text text-anchor="middle" x="3028" y="-87.5" font-family="sans" font-size="10.00" fill="#000000">CorcesINT_dea_limma_annot_export</text>
</g>
<!-- 51&#45;&gt;0 -->
<g id="edge9" class="edge">
<title>51&#45;&gt;0</title>
<path fill="none" stroke="#c0c0c0" stroke-width="2" d="M2929.7488,-73.2843C2926.4626,-72.834 2923.2061,-72.4041 2920,-72 2696.2235,-43.7916 2425.7684,-26.0404 2328.2787,-20.1619"/>
<polygon fill="#c0c0c0" stroke="#c0c0c0" stroke-width="2" points="2328.2466,-16.6539 2318.0556,-19.5509 2327.829,-23.6414 2328.2466,-16.6539"/>
</g>
<!-- 52 -->
<g id="node53" class="node">
<title>52</title>
<path fill="none" stroke="#88d856" stroke-width="2" d="M3356,-108C3356,-108 3156,-108 3156,-108 3150,-108 3144,-102 3144,-96 3144,-96 3144,-84 3144,-84 3144,-78 3150,-72 3156,-72 3156,-72 3356,-72 3356,-72 3362,-72 3368,-78 3368,-84 3368,-84 3368,-96 3368,-96 3368,-102 3362,-108 3356,-108"/>
<text text-anchor="middle" x="3256" y="-87.5" font-family="sans" font-size="10.00" fill="#000000">CorcesINT_dea_limma_feature_list_export</text>
</g>
<!-- 52&#45;&gt;0 -->
<g id="edge4" class="edge">
<title>52&#45;&gt;0</title>
<path fill="none" stroke="#c0c0c0" stroke-width="2" d="M3143.9726,-72.9973C3140.9519,-72.6474 3137.9567,-72.3139 3135,-72 2824.2177,-39.0005 2446.7588,-23.5448 2328.3561,-19.2725"/>
<polygon fill="#c0c0c0" stroke="#c0c0c0" stroke-width="2" points="2328.1527,-15.7631 2318.0344,-18.9049 2327.9034,-22.7587 2328.1527,-15.7631"/>
</g>
<!-- 53&#45;&gt;0 -->
<g id="edge10" class="edge">
<title>53&#45;&gt;0</title>
<path fill="none" stroke="#c0c0c0" stroke-width="2" d="M1615.6679,-359.8756C1619.6139,-349.5642 1624.0055,-336.2907 1626,-324 1628.9397,-305.8848 1629.3244,-227.7893 1625,-216 1599.0905,-145.3647 1484.732,-127.0658 1536,-72 1560.7311,-45.4368 2105.1713,-24.5011 2253.8023,-19.2659"/>
<polygon fill="#c0c0c0" stroke="#c0c0c0" stroke-width="2" points="2253.9355,-22.7635 2263.8071,-18.9163 2253.6909,-15.7678 2253.9355,-22.7635"/>
</g>
<!-- 54&#45;&gt;0 -->
<g id="edge11" class="edge">
<title>54&#45;&gt;0</title>
<path fill="none" stroke="#c0c0c0" stroke-width="2" d="M761.9532,-215.7352C777.9519,-194.7054 807.2287,-160.8943 841,-144 934.7124,-97.1199 978.5442,-151.2198 1074,-108 1096.7056,-97.7195 1093.7756,-81.0478 1117,-72 1224.9349,-29.9506 2065.2027,-20.0104 2253.5985,-18.3017"/>
<polygon fill="#c0c0c0" stroke="#c0c0c0" stroke-width="2" points="2253.8545,-21.7996 2263.8232,-18.2113 2253.7926,-14.7999 2253.8545,-21.7996"/>
</g>
<!-- 57 -->
<g id="node58" class="node">
<title>57</title>
<path fill="none" stroke="#70d856" stroke-width="2" d="M1374,-180C1374,-180 1108,-180 1108,-180 1102,-180 1096,-174 1096,-168 1096,-168 1096,-156 1096,-156 1096,-150 1102,-144 1108,-144 1108,-144 1374,-144 1374,-144 1380,-144 1386,-150 1386,-156 1386,-156 1386,-168 1386,-168 1386,-174 1380,-180 1374,-180"/>
<text text-anchor="middle" x="1241" y="-159.5" font-family="sans" font-size="10.00" fill="#000000">CorcesINT_enrichment_analysis_plot_enrichment_result</text>
</g>
<!-- 54&#45;&gt;57 -->
<g id="edge116" class="edge">
<title>54&#45;&gt;57</title>
<path fill="none" stroke="#c0c0c0" stroke-width="2" d="M872.2002,-215.9707C943.8325,-205.4879 1034.1486,-192.2709 1107.4746,-181.5403"/>
<polygon fill="#c0c0c0" stroke="#c0c0c0" stroke-width="2" points="1108.317,-184.9544 1117.7048,-180.0432 1107.3033,-178.0282 1108.317,-184.9544"/>
</g>
<!-- 63 -->
<g id="node64" class="node">
<title>63</title>
<path fill="none" stroke="#80d856" stroke-width="2" d="M1065.5,-180C1065.5,-180 862.5,-180 862.5,-180 856.5,-180 850.5,-174 850.5,-168 850.5,-168 850.5,-156 850.5,-156 850.5,-150 856.5,-144 862.5,-144 862.5,-144 1065.5,-144 1065.5,-144 1071.5,-144 1077.5,-150 1077.5,-156 1077.5,-156 1077.5,-168 1077.5,-168 1077.5,-174 1071.5,-180 1065.5,-180"/>
<text text-anchor="middle" x="964" y="-159.5" font-family="sans" font-size="10.00" fill="#000000">CorcesINT_enrichment_analysis_aggregate</text>
</g>
<!-- 54&#45;&gt;63 -->
<g id="edge126" class="edge">
<title>54&#45;&gt;63</title>
<path fill="none" stroke="#c0c0c0" stroke-width="2" d="M802.9761,-215.9243C832.4956,-206.0387 869.2444,-193.7321 900.1789,-183.3726"/>
<polygon fill="#c0c0c0" stroke="#c0c0c0" stroke-width="2" points="901.6308,-186.5776 910.0017,-180.0831 899.4079,-179.9399 901.6308,-186.5776"/>
</g>
<!-- 55&#45;&gt;54 -->
<g id="edge111" class="edge">
<title>55&#45;&gt;54</title>
<path fill="none" stroke="#c0c0c0" stroke-width="2" d="M960.2035,-287.9243C920.4792,-277.7819 870.7737,-265.0912 829.5636,-254.5694"/>
<polygon fill="#c0c0c0" stroke="#c0c0c0" stroke-width="2" points="830.3807,-251.1658 819.8256,-252.0831 828.649,-257.9483 830.3807,-251.1658"/>
</g>
<!-- 55&#45;&gt;58 -->
<g id="edge118" class="edge">
<title>55&#45;&gt;58</title>
<path fill="none" stroke="#c0c0c0" stroke-width="2" d="M1119.0432,-289.6621C1176.2281,-279.0505 1251.131,-265.151 1311.7807,-253.8964"/>
<polygon fill="#c0c0c0" stroke="#c0c0c0" stroke-width="2" points="1312.5783,-257.3082 1321.7718,-252.0423 1311.3011,-250.4257 1312.5783,-257.3082"/>
</g>
<!-- 61 -->
<g id="node62" class="node">
<title>61</title>
<path fill="none" stroke="#70d856" stroke-width="2" d="M1191,-252C1191,-252 915,-252 915,-252 909,-252 903,-246 903,-240 903,-240 903,-228 903,-228 903,-222 909,-216 915,-216 915,-216 1191,-216 1191,-216 1197,-216 1203,-222 1203,-228 1203,-228 1203,-240 1203,-240 1203,-246 1197,-252 1191,-252"/>
<text text-anchor="middle" x="1053" y="-231.5" font-family="sans" font-size="10.00" fill="#000000">CorcesINT_enrichment_analysis_gene_preranked_GSEApy</text>
</g>
<!-- 55&#45;&gt;61 -->
<g id="edge122" class="edge">
<title>55&#45;&gt;61</title>
<path fill="none" stroke="#c0c0c0" stroke-width="2" d="M1036.5515,-287.8314C1038.9303,-280.0463 1041.7638,-270.7729 1044.4033,-262.1347"/>
<polygon fill="#c0c0c0" stroke="#c0c0c0" stroke-width="2" points="1047.7987,-262.9996 1047.3737,-252.4133 1041.1042,-260.954 1047.7987,-262.9996"/>
</g>
<!-- 56 -->
<g id="node57" class="node">
<title>56</title>
<path fill="none" stroke="#70d856" stroke-width="2" d="M912.5,-324C912.5,-324 665.5,-324 665.5,-324 659.5,-324 653.5,-318 653.5,-312 653.5,-312 653.5,-300 653.5,-300 653.5,-294 659.5,-288 665.5,-288 665.5,-288 912.5,-288 912.5,-288 918.5,-288 924.5,-294 924.5,-300 924.5,-300 924.5,-312 924.5,-312 924.5,-318 918.5,-324 912.5,-324"/>
<text text-anchor="middle" x="789" y="-303.5" font-family="sans" font-size="10.00" fill="#000000">CorcesINT_enrichment_analysis_prepare_databases</text>
</g>
<!-- 56&#45;&gt;54 -->
<g id="edge113" class="edge">
<title>56&#45;&gt;54</title>
<path fill="none" stroke="#c0c0c0" stroke-width="2" d="M778.9063,-287.8314C774.4403,-279.7925 769.0925,-270.1666 764.1621,-261.2918"/>
<polygon fill="#c0c0c0" stroke="#c0c0c0" stroke-width="2" points="767.1456,-259.4551 759.2296,-252.4133 761.0265,-262.8546 767.1456,-259.4551"/>
</g>
<!-- 56&#45;&gt;61 -->
<g id="edge123" class="edge">
<title>56&#45;&gt;61</title>
<path fill="none" stroke="#c0c0c0" stroke-width="2" d="M855.2776,-287.9243C892.1525,-277.8675 938.2144,-265.3052 976.6004,-254.8363"/>
<polygon fill="#c0c0c0" stroke="#c0c0c0" stroke-width="2" points="977.9684,-258.0911 986.6951,-252.0831 976.1266,-251.3377 977.9684,-258.0911"/>
</g>
<!-- 57&#45;&gt;0 -->
<g id="edge12" class="edge">
<title>57&#45;&gt;0</title>
<path fill="none" stroke="#c0c0c0" stroke-width="2" d="M1286.0294,-143.9402C1307.8277,-134.4346 1333.9812,-121.8774 1356,-108 1377.3757,-94.5279 1376.4716,-81.2106 1400,-72 1480.3198,-40.5573 2094.8171,-22.9627 2253.6324,-18.9104"/>
<polygon fill="#c0c0c0" stroke="#c0c0c0" stroke-width="2" points="2253.9375,-22.4039 2263.846,-18.6525 2253.7608,-15.4062 2253.9375,-22.4039"/>
</g>
<!-- 58&#45;&gt;0 -->
<g id="edge13" class="edge">
<title>58&#45;&gt;0</title>
<path fill="none" stroke="#c0c0c0" stroke-width="2" d="M1422.7679,-215.8609C1431.142,-177.4369 1452.4304,-89.8923 1476,-72 1507.3631,-48.1914 2097.9917,-25.0409 2253.6564,-19.3342"/>
<polygon fill="#c0c0c0" stroke="#c0c0c0" stroke-width="2" points="2253.8197,-22.8307 2263.6855,-18.9687 2253.5647,-15.8353 2253.8197,-22.8307"/>
</g>
<!-- 58&#45;&gt;57 -->
<g id="edge117" class="edge">
<title>58&#45;&gt;57</title>
<path fill="none" stroke="#c0c0c0" stroke-width="2" d="M1374.0831,-215.8314C1350.065,-206.1162 1320.3166,-194.0831 1295.0408,-183.8592"/>
<polygon fill="#c0c0c0" stroke="#c0c0c0" stroke-width="2" points="1296.1767,-180.5432 1285.5939,-180.038 1293.5518,-187.0325 1296.1767,-180.5432"/>
</g>
<!-- 58&#45;&gt;63 -->
<g id="edge127" class="edge">
<title>58&#45;&gt;63</title>
<path fill="none" stroke="#c0c0c0" stroke-width="2" d="M1305.0649,-215.9707C1238.8295,-205.4895 1155.3208,-192.2749 1087.5146,-181.5452"/>
<polygon fill="#c0c0c0" stroke="#c0c0c0" stroke-width="2" points="1088.0525,-178.0868 1077.6283,-179.9807 1086.9583,-185.0008 1088.0525,-178.0868"/>
</g>
<!-- 59 -->
<g id="node60" class="node">
<title>59</title>
<path fill="none" stroke="#80d856" stroke-width="2" d="M1379,-324C1379,-324 1187,-324 1187,-324 1181,-324 1175,-318 1175,-312 1175,-312 1175,-300 1175,-300 1175,-294 1181,-288 1187,-288 1187,-288 1379,-288 1379,-288 1385,-288 1391,-294 1391,-300 1391,-300 1391,-312 1391,-312 1391,-318 1385,-324 1379,-324"/>
<text text-anchor="middle" x="1283" y="-303.5" font-family="sans" font-size="10.00" fill="#000000">CorcesINT_download_rankings_database</text>
</g>
<!-- 59&#45;&gt;58 -->
<g id="edge119" class="edge">
<title>59&#45;&gt;58</title>
<path fill="none" stroke="#c0c0c0" stroke-width="2" d="M1317.3185,-287.8314C1335.0359,-278.4516 1356.8345,-266.9112 1375.6984,-256.9244"/>
<polygon fill="#c0c0c0" stroke="#c0c0c0" stroke-width="2" points="1377.4922,-259.935 1384.6924,-252.1628 1374.2169,-253.7485 1377.4922,-259.935"/>
</g>
<!-- 60 -->
<g id="node61" class="node">
<title>60</title>
<path fill="none" stroke="#80d856" stroke-width="2" d="M1605,-324C1605,-324 1421,-324 1421,-324 1415,-324 1409,-318 1409,-312 1409,-312 1409,-300 1409,-300 1409,-294 1415,-288 1421,-288 1421,-288 1605,-288 1605,-288 1611,-288 1617,-294 1617,-300 1617,-300 1617,-312 1617,-312 1617,-318 1611,-324 1605,-324"/>
<text text-anchor="middle" x="1513" y="-303.5" font-family="sans" font-size="10.00" fill="#000000">CorcesINT_download_motif_annotation</text>
</g>
<!-- 60&#45;&gt;58 -->
<g id="edge121" class="edge">
<title>60&#45;&gt;58</title>
<path fill="none" stroke="#c0c0c0" stroke-width="2" d="M1489.2798,-287.8314C1477.5906,-278.8779 1463.3312,-267.9558 1450.7191,-258.2955"/>
<polygon fill="#c0c0c0" stroke="#c0c0c0" stroke-width="2" points="1452.7797,-255.4651 1442.7126,-252.1628 1448.5231,-261.0222 1452.7797,-255.4651"/>
</g>
<!-- 61&#45;&gt;0 -->
<g id="edge33" class="edge">
<title>61&#45;&gt;0</title>
<path fill="none" stroke="#c0c0c0" stroke-width="2" d="M1203.2322,-216.6134C1287.4535,-205.7522 1378.8164,-191.6645 1395,-180 1438.8631,-148.3853 1405.7236,-101.5551 1451,-72 1518.8175,-27.7307 2099.0541,-19.6385 2253.4125,-18.2644"/>
<polygon fill="#c0c0c0" stroke="#c0c0c0" stroke-width="2" points="2253.8075,-21.7613 2263.7774,-18.1767 2253.7481,-14.7616 2253.8075,-21.7613"/>
</g>
<!-- 61&#45;&gt;57 -->
<g id="edge115" class="edge">
<title>61&#45;&gt;57</title>
<path fill="none" stroke="#c0c0c0" stroke-width="2" d="M1100.4403,-215.8314C1125.9195,-206.0734 1157.5044,-193.977 1184.2757,-183.7242"/>
<polygon fill="#c0c0c0" stroke="#c0c0c0" stroke-width="2" points="1185.814,-186.883 1193.9008,-180.038 1183.3104,-180.346 1185.814,-186.883"/>
</g>
<!-- 61&#45;&gt;63 -->
<g id="edge125" class="edge">
<title>61&#45;&gt;63</title>
<path fill="none" stroke="#c0c0c0" stroke-width="2" d="M1030.5415,-215.8314C1019.5795,-206.9632 1006.2301,-196.1637 994.3735,-186.5718"/>
<polygon fill="#c0c0c0" stroke="#c0c0c0" stroke-width="2" points="996.4271,-183.7313 986.4513,-180.1628 992.0245,-189.1734 996.4271,-183.7313"/>
</g>
<!-- 62 -->
<g id="node63" class="node">
<title>62</title>
<path fill="none" stroke="#61d856" stroke-width="2" d="M1335.5,-108C1335.5,-108 1138.5,-108 1138.5,-108 1132.5,-108 1126.5,-102 1126.5,-96 1126.5,-96 1126.5,-84 1126.5,-84 1126.5,-78 1132.5,-72 1138.5,-72 1138.5,-72 1335.5,-72 1335.5,-72 1341.5,-72 1347.5,-78 1347.5,-84 1347.5,-84 1347.5,-96 1347.5,-96 1347.5,-102 1341.5,-108 1335.5,-108"/>
<text text-anchor="middle" x="1237" y="-87.5" font-family="sans" font-size="10.00" fill="#000000">CorcesINT_enrichment_analysis_visualize</text>
</g>
<!-- 62&#45;&gt;0 -->
<g id="edge34" class="edge">
<title>62&#45;&gt;0</title>
<path fill="none" stroke="#c0c0c0" stroke-width="2" d="M1347.6969,-73.5506C1352.5259,-72.9938 1357.3099,-72.4731 1362,-72 1707.5679,-37.1393 2127.8944,-22.7468 2253.7117,-19.0297"/>
<polygon fill="#c0c0c0" stroke="#c0c0c0" stroke-width="2" points="2254.0592,-22.5212 2263.9531,-18.7317 2253.8555,-15.5242 2254.0592,-22.5212"/>
</g>
<!-- 63&#45;&gt;62 -->
<g id="edge124" class="edge">
<title>63&#45;&gt;62</title>
<path fill="none" stroke="#c0c0c0" stroke-width="2" d="M1032.537,-143.9243C1070.9125,-133.8033 1118.9097,-121.1447 1158.755,-110.6361"/>
<polygon fill="#c0c0c0" stroke="#c0c0c0" stroke-width="2" points="1159.658,-114.0177 1168.4348,-108.0831 1157.8728,-107.2491 1159.658,-114.0177"/>
</g>
<!-- 64 -->
<g id="node65" class="node">
<title>64</title>
<path fill="none" stroke="#78d856" stroke-width="2" d="M3835.5,-108C3835.5,-108 3626.5,-108 3626.5,-108 3620.5,-108 3614.5,-102 3614.5,-96 3614.5,-96 3614.5,-84 3614.5,-84 3614.5,-78 3620.5,-72 3626.5,-72 3626.5,-72 3835.5,-72 3835.5,-72 3841.5,-72 3847.5,-78 3847.5,-84 3847.5,-84 3847.5,-96 3847.5,-96 3847.5,-102 3841.5,-108 3835.5,-108"/>
<text text-anchor="middle" x="3731" y="-87.5" font-family="sans" font-size="10.00" fill="#000000">CorcesINT_enrichment_analysis_env_export</text>
</g>
<!-- 64&#45;&gt;0 -->
<g id="edge2" class="edge">
<title>64&#45;&gt;0</title>
<path fill="none" stroke="#c0c0c0" stroke-width="2" d="M3614.2862,-73.3884C3609.4644,-72.8841 3604.6876,-72.4178 3600,-72 3098.3328,-27.2892 2485.1453,-19.524 2328.7085,-18.2422"/>
<polygon fill="#c0c0c0" stroke="#c0c0c0" stroke-width="2" points="2328.2692,-14.7388 2318.2422,-18.1607 2328.2146,-21.7386 2328.2692,-14.7388"/>
</g>
<!-- 65 -->
<g id="node66" class="node">
<title>65</title>
<path fill="none" stroke="#78d856" stroke-width="2" d="M4098,-108C4098,-108 3878,-108 3878,-108 3872,-108 3866,-102 3866,-96 3866,-96 3866,-84 3866,-84 3866,-78 3872,-72 3878,-72 3878,-72 4098,-72 4098,-72 4104,-72 4110,-78 4110,-84 4110,-84 4110,-96 4110,-96 4110,-102 4104,-108 4098,-108"/>
<text text-anchor="middle" x="3988" y="-87.5" font-family="sans" font-size="10.00" fill="#000000">CorcesINT_enrichment_analysis_config_export</text>
</g>
<!-- 65&#45;&gt;0 -->
<g id="edge31" class="edge">
<title>65&#45;&gt;0</title>
<path fill="none" stroke="#c0c0c0" stroke-width="2" d="M3865.7905,-72.8927C3862.4946,-72.5736 3859.2263,-72.2749 3856,-72 3545.3172,-45.5252 2534.88,-23.1394 2328.1509,-18.7711"/>
<polygon fill="#c0c0c0" stroke="#c0c0c0" stroke-width="2" points="2328.176,-15.2709 2318.1045,-18.5596 2328.0286,-22.2694 2328.176,-15.2709"/>
</g>
<!-- 66 -->
<g id="node67" class="node">
<title>66</title>
<path fill="none" stroke="#78d856" stroke-width="2" d="M4358,-108C4358,-108 4140,-108 4140,-108 4134,-108 4128,-102 4128,-96 4128,-96 4128,-84 4128,-84 4128,-78 4134,-72 4140,-72 4140,-72 4358,-72 4358,-72 4364,-72 4370,-78 4370,-84 4370,-84 4370,-96 4370,-96 4370,-102 4364,-108 4358,-108"/>
<text text-anchor="middle" x="4249" y="-87.5" font-family="sans" font-size="10.00" fill="#000000">CorcesINT_enrichment_analysis_annot_export</text>
</g>
<!-- 66&#45;&gt;0 -->
<g id="edge1" class="edge">
<title>66&#45;&gt;0</title>
<path fill="none" stroke="#c0c0c0" stroke-width="2" d="M4127.9502,-72.8028C4124.9388,-72.5157 4121.9517,-72.2472 4119,-72 3752.8538,-41.3337 2554.556,-21.9785 2328.1041,-18.5485"/>
<polygon fill="#c0c0c0" stroke="#c0c0c0" stroke-width="2" points="2328.1141,-15.0483 2318.0625,-18.3972 2328.0086,-22.0475 2328.1141,-15.0483"/>
</g>
</g>
</svg>
